<?xml version="1.0" encoding="iso-8859-1"?><!-- Generator: Adobe Illustrator 21.1.0, SVG Export Plug-In . SVG Version: 6.00 Build 0)  --><svg xmlns="http://www.w3.org/2000/svg" xmlns:xlink="http://www.w3.org/1999/xlink" viewBox="0 0 48 48" width="48px" height="48px"><path style="fill:#E53935;" d="M46,39V9H2v30H46z"/><path style="fill:#E53935;" d="M46,39V9H2v30H46z"/><path style="fill:#283593;" d="M46,39V24H2v15H46z"/><polygon style="fill:#FFFFFF;" points="46,19 23.667,19 10.333,9 2,9 2,15.25 13.667,24 2,32.75 2,39 10.333,39 23.667,29 46,29 "/><polygon style="fill:#2E7D32;" points="46,21 23,21 7,9 2,9 2,12.75 17,24 2,35.25 2,39 7,39 23,27 46,27 "/><g><polygon style="fill:#FFC107;" points="2,12.75 2,15.25 13.667,24 2,32.75 2,35.25 17,24  "/></g><g><polygon style="fill:#263238;" points="2,32.75 13.667,24 2,15.25  "/></g></svg>