<?xml version="1.0" encoding="utf-8"?><!-- Generator: Adobe Illustrator 15.0.0, SVG Export Plug-In . SVG Version: 6.00 Build 0)  --><!DOCTYPE svg PUBLIC "-//W3C//DTD SVG 1.1//EN" "http://www.w3.org/Graphics/SVG/1.1/DTD/svg11.dtd"><svg xmlns="http://www.w3.org/2000/svg" xmlns:xlink="http://www.w3.org/1999/xlink" viewBox="0 0 48 48" width="48px" height="48px"><rect x="2" y="10" fill="#3F51B5" width="44" height="28"/><polygon fill="#FFEB3B" points="37,38.002 9,10 37,10 "/><g><polygon fill="#FFFFFF" points="7,10 7.617,11.317 9,11.527 8,12.555 8.236,14 7,13.317 5.764,14 6,12.555 5,11.527 6.383,11.317 "/><polygon fill="#FFFFFF" points="11,14 11.617,15.317 13,15.527 12,16.555 12.236,18 11,17.317 9.764,18 10,16.555 9,15.527 10.383,15.317 "/><polygon fill="#FFFFFF" points="15,18 15.617,19.317 17,19.527 16,20.555 16.236,22 15,21.317 13.764,22 14,20.555 13,19.527 14.383,19.317 "/><polygon fill="#FFFFFF" points="19,22 19.617,23.317 21,23.527 20,24.555 20.236,26 19,25.317 17.764,26 18,24.555 17,23.527 18.383,23.317 "/><polygon fill="#FFFFFF" points="23,26 23.617,27.317 25,27.527 24,28.555 24.236,30 23,29.317 21.764,30 22,28.555 21,27.527 22.383,27.317 "/><polygon fill="#FFFFFF" points="27,30 27.617,31.317 29,31.527 28,32.555 28.236,34 27,33.317 25.764,34 26,32.555 25,31.527 26.383,31.317 "/><polygon fill="#FFFFFF" points="31,34 31.617,35.317 33,35.527 32,36.555 32.236,38 31,37.317 29.764,38 30,36.555 29,35.527 30.383,35.317 "/></g></svg>