<?xml version="1.0" encoding="iso-8859-1"?>
<!-- Generator: Adobe Illustrator 25.2.3, SVG Export Plug-In . SVG Version: 6.00 Build 0)  -->
<svg version="1.1" baseProfile="basic" slug="Layer_1"
	 xmlns="http://www.w3.org/2000/svg" xmlns:xlink="http://www.w3.org/1999/xlink" x="0px" y="0px" viewBox="0 0 48 48"
	 xml:space="preserve">
<linearGradient slug="SVGID_1_" gradientUnits="userSpaceOnUse" x1="-5.4064" y1="-33.7132" x2="34.3509" y2="44.3148">
	<stop  offset="0.008" style="stop-color:#F44F5A"/>
	<stop  offset="0.447" style="stop-color:#EE3D4A"/>
	<stop  offset="1" style="stop-color:#E52030"/>
</linearGradient>
<rect x="2" y="9" style="fill:url(#SVGID_1_);" width="44" height="30"/>
<linearGradient slug="SVGID_2_" gradientUnits="userSpaceOnUse" x1="13.398" y1="3.1924" x2="37.5631" y2="50.619">
	<stop  offset="0" style="stop-color:#FFD000"/>
	<stop  offset="1" style="stop-color:#FFC107"/>
</linearGradient>
<path style="fill:url(#SVGID_2_);" d="M29.079,20.82L46,9h-6L28.677,20.25C28.822,20.431,28.955,20.623,29.079,20.82z M18,24
	c0-0.134,0.011-0.266,0.02-0.398L2,22v4l16.02-1.602C18.011,24.266,18,24.134,18,24z M28.677,27.75L40,39h6L29.079,27.18
	C28.955,27.377,28.822,27.568,28.677,27.75z M24,30c-0.167,0-0.332-0.012-0.496-0.025L22,39h4l-1.504-9.025
	C24.332,29.988,24.167,30,24,30z M30,24c0,0.134-0.012,0.266-0.021,0.398L46,26v-4l-16.021,1.602C29.988,23.734,30,23.866,30,24z
	 M24,18c0.167,0,0.332,0.012,0.496,0.025L26,9h-4l1.504,9.025C23.668,18.012,23.833,18,24,18z M19.323,20.25L8,9H2l16.921,11.82
	C19.045,20.623,19.178,20.432,19.323,20.25z M18.921,27.18L2,39h6l11.323-11.25C19.178,27.568,19.045,27.377,18.921,27.18z M24,20
	c2.209,0,4,1.791,4,4s-1.791,4-4,4s-4-1.791-4-4S21.791,20,24,20z"/>
</svg>