<?xml version="1.0" encoding="iso-8859-1"?>
<!-- Generator: Adobe Illustrator 25.2.3, SVG Export Plug-In . SVG Version: 6.00 Build 0)  -->
<svg version="1.1" baseProfile="basic" id="Layer_1"
	 xmlns="http://www.w3.org/2000/svg" xmlns:xlink="http://www.w3.org/1999/xlink" x="0px" y="0px" viewBox="0 0 48 48"
	 xml:space="preserve">
<linearGradient id="SVGID_1_" gradientUnits="userSpaceOnUse" x1="21.9038" y1="9.8859" x2="48.8871" y2="62.8437">
	<stop  offset="0" style="stop-color:#DFE9F2"/>
	<stop  offset="0.998" style="stop-color:#9EA7B0"/>
</linearGradient>
<path style="fill:url(#SVGID_1_);" d="M2,9v10h6c0,1.303,0,2.989,0,5c0,4.975,4.169,6.734,7,8c2.832-1.266,7-3.025,7-8
	c0-2.011,0-3.697,0-5h24V9H2z"/>
<linearGradient id="SVGID_2_" gradientUnits="userSpaceOnUse" x1="9.1631" y1="4.3809" x2="29.8984" y2="45.0763">
	<stop  offset="0.008" style="stop-color:#F44F5A"/>
	<stop  offset="0.447" style="stop-color:#EE3D4A"/>
	<stop  offset="1" style="stop-color:#E52030"/>
</linearGradient>
<path style="fill:url(#SVGID_2_);" d="M46,28v11H2V28l8.02,1c1.45,1.45,3.42,2.3,4.98,3c1.56-0.7,3.53-1.55,4.98-3L46,28z M21,17
	c0,0,0,2.48,0,7c0,1.791-0.554,3.076-1.372,4.047C18.362,29.547,16.463,29.296,15,30c-1.486-0.715-3.421-0.476-4.686-2.023
	C9.528,27.015,9,25.748,9,24c0-4.56,0-7,0-7H21z M18.97,24.09c0-0.53,0.03-0.99,0.03-0.99c-1.27,0.43-2.69,0.4-3.42,0.39v-1.77
	c0.66-0.01,1.34-0.08,2.42,0.28c0,0-0.03-0.45-0.03-0.98c0-0.53,0.03-0.99,0.03-0.99c-1.08,0.37-1.75,0.5-2.42,0.5
	c0.03-1.12,0.36-2.53,0.36-2.53s-0.67,0.05-0.94,0.05S14.06,18,14.06,18s0.33,1.41,0.36,2.53c-0.66,0.01-1.34-0.15-2.42-0.51
	c0,0,0,0.45,0,0.98c0,0.53,0,0.98,0,0.98c1.09-0.36,1.76-0.27,2.42-0.26v1.77c-0.73,0.01-2.15,0.04-3.42-0.38
	c0,0,0.03,0.45,0.03,0.98c0,0.53-0.03,0.98-0.03,0.98c1.16-0.39,2.6-0.4,3.42-0.39v2.82h1.16v-2.82c0.82-0.01,2.26,0,3.42,0.39
	C19,25.07,18.97,24.61,18.97,24.09z"/>
<linearGradient id="SVGID_3_" gradientUnits="userSpaceOnUse" x1="17.4431" y1="11.1313" x2="31.893" y2="39.491">
	<stop  offset="0" style="stop-color:#2196F3"/>
	<stop  offset="1" style="stop-color:#0D61A9"/>
</linearGradient>
<path style="fill:url(#SVGID_3_);" d="M8,24c0-2.011,0-3.697,0-5H2v10h8.026C8.844,27.816,8,26.234,8,24z M22,19
	c0,1.303,0,2.989,0,5c0,2.234-0.844,3.816-2.026,5H46V19H22z M16.827,27.65c0,0-0.637-1.65-1.827-1.65
	c-1.189,0-1.827,1.65-1.827,1.65s-0.354-0.783-1.324-0.783c-0.599,0-1.227,0.616-1.535,1.11C11.578,29.538,13.58,30.316,15,31
	c1.42-0.684,3.365-1.392,4.628-2.953c-0.307-0.493-0.877-1.18-1.475-1.18C17.182,26.867,16.827,27.65,16.827,27.65z"/>
</svg>