<?xml version="1.0" encoding="utf-8"?><!-- Generator: Adobe Illustrator 15.0.0, SVG Export Plug-In . SVG Version: 6.00 Build 0)  --><!DOCTYPE svg PUBLIC "-//W3C//DTD SVG 1.1//EN" "http://www.w3.org/Graphics/SVG/1.1/DTD/svg11.dtd"><svg xmlns="http://www.w3.org/2000/svg" xmlns:xlink="http://www.w3.org/1999/xlink" viewBox="0 0 48 48" width="48px" height="48px"><rect x="2" y="10" fill="#3F51B5" width="44" height="28"/><g><polygon fill="#FFFFFF" points="2,14.216 22.81,26.935 25.939,21.815 6.608,10 2,10 "/><polygon fill="#FFFFFF" points="46,10 42.391,10 23.061,21.814 26.189,26.935 46,14.826 "/><polygon fill="#FFFFFF" points="26.189,20.271 23.061,25.391 43.691,38 46,38 46,32.379 "/><polygon fill="#FFFFFF" points="2,32.991 2,38 5.31,38 25.939,25.392 22.811,20.271 "/><rect x="2" y="20" fill="#FFFFFF" width="44" height="8"/><rect x="20" y="10" fill="#FFFFFF" width="8" height="28"/></g><g><polygon fill="#E53935" points="17.218,20 2,10.699 2,13.043 13.382,20 "/><polygon fill="#E53935" points="44.309,10 27.947,20 31.782,20 46,11.311 46,10 "/><polygon fill="#E53935" points="33.082,28 46,35.895 46,33.551 36.917,28 "/><polygon fill="#E53935" points="15.918,28 2,36.506 2,38 3.392,38 19.753,28 "/><rect x="2" y="22" fill="#E53935" width="44" height="4"/><rect x="22" y="10" fill="#E53935" width="4" height="28"/></g></svg>