<?xml version="1.0" encoding="utf-8"?><!-- Generator: Adobe Illustrator 15.0.0, SVG Export Plug-In . SVG Version: 6.00 Build 0)  --><!DOCTYPE svg PUBLIC "-//W3C//DTD SVG 1.1//EN" "http://www.w3.org/Graphics/SVG/1.1/DTD/svg11.dtd"><svg xmlns="http://www.w3.org/2000/svg" xmlns:xlink="http://www.w3.org/1999/xlink" viewBox="0 0 48 48" width="48px" height="48px"><rect x="2" y="9" fill="#FF3D00" width="44" height="30"/><g><polygon fill="#FFFFFF" points="20.791,23.186 20.78,20.457 22.392,22.658 24.984,21.808 23.388,24.02 25,26.221 22.402,25.387 20.807,27.6 20.797,24.872 18.199,24.038 "/><path fill="#FFFFFF" d="M17.471,31.086c-3.898,0-7.059-3.162-7.059-7.06c0-3.899,3.16-7.059,7.059-7.059c0.634,0,1.244,0.091,1.828,0.246c-1.218-0.748-2.646-1.188-4.181-1.188c-4.418,0-8,3.582-8,8s3.582,8,8,8c1.534,0,2.963-0.439,4.181-1.189C18.715,30.995,18.104,31.086,17.471,31.086z"/></g></svg>