<?xml version="1.0" encoding="iso-8859-1"?>
<!-- Generator: Adobe Illustrator 25.2.3, SVG Export Plug-In . SVG Version: 6.00 Build 0)  -->
<svg version="1.1" baseProfile="basic" id="Layer_1"
	 xmlns="http://www.w3.org/2000/svg" xmlns:xlink="http://www.w3.org/1999/xlink" x="0px" y="0px" viewBox="0 0 48 48"
	 xml:space="preserve">
<linearGradient id="SVGID_1_" gradientUnits="userSpaceOnUse" x1="4.923" y1="-1.9456" x2="30.0062" y2="47.2831">
	<stop  offset="0" style="stop-color:#0D61A9"/>
	<stop  offset="1" style="stop-color:#16528C"/>
</linearGradient>
<path style="fill:url(#SVGID_1_);" d="M6,1.946V46h35.239l-18.5-19h20.285L6,1.946L6,1.946z"/>
<linearGradient id="SVGID_2_" gradientUnits="userSpaceOnUse" x1="3.0758" y1="-3.1316" x2="29.4215" y2="48.5749">
	<stop  offset="0.008" style="stop-color:#F44F5A"/>
	<stop  offset="0.447" style="stop-color:#EE3D4A"/>
	<stop  offset="1" style="stop-color:#E52030"/>
</linearGradient>
<polygon style="fill:url(#SVGID_2_);" points="36.5,25 8,5.714 8,44 36.5,44 18,25 "/>
<linearGradient id="SVGID_3_" gradientUnits="userSpaceOnUse" x1="10.1" y1="15.1186" x2="38.666" y2="71.1825">
	<stop  offset="0" style="stop-color:#DFE9F2"/>
	<stop  offset="0.998" style="stop-color:#9EA7B0"/>
</linearGradient>
<path style="fill:url(#SVGID_3_);" d="M15.997,22.985c3.315,0,6.003-2.687,6.003-6.003c-0.527,1.341-1.482,2.451-2.697,3.175
	l-0.512-0.382l1.005-0.753l-1.216-0.311l0.643-1.09l-1.256,0.181l0.186-1.246l-1.09,0.653l-0.311-1.231l-0.753,1.005l-0.753-1.005
	l-0.316,1.226l-1.085-0.643l0.186,1.256l-1.256-0.186l0.653,1.09L12.2,19.032l1.005,0.753l-0.502,0.387
	c-1.19-0.703-2.16-1.788-2.702-3.175C10,20.313,12.687,23,16.003,23L15.997,22.985z M13.308,32.308L10.804,32l1.519,2.009L10,35
	l2.322,0.981l-1.519,2.009l2.505-0.308L13,40.192l2.009-1.519L16,41l0.981-2.327L19,40.196l-0.308-2.505l2.505,0.313l-1.519-2.009
	L22,35.014l-2.322-0.991l1.519-2.009l-2.505,0.304L19,29.813l-2.009,1.519L16,29l-0.981,2.322L13,29.804L13.308,32.308
	L13.308,32.308z"/>
</svg>