<?xml version="1.0" encoding="utf-8"?><!-- Generator: Adobe Illustrator 15.0.0, SVG Export Plug-In . SVG Version: 6.00 Build 0)  --><!DOCTYPE svg PUBLIC "-//W3C//DTD SVG 1.1//EN" "http://www.w3.org/Graphics/SVG/1.1/DTD/svg11.dtd"><svg xmlns="http://www.w3.org/2000/svg" xmlns:xlink="http://www.w3.org/1999/xlink" viewBox="0 0 48 48" width="48px" height="48px"><polygon fill="#FF3D00" points="2,9 2,24 2,39 46,39 46,24 46,9 "/><g><polygon fill="#FFEB3B" points="10,13.49 11.181,17.24 15,17.24 11.91,19.367 13.09,23 10,20.755 6.91,23 8.09,19.367 5,17.24 8.819,17.24 "/><polygon fill="#FFEB3B" points="17.474,10.976 17.828,12.101 18.974,12.101 18.047,12.737 18.401,13.828 17.474,13.154 16.547,13.828 16.901,12.737 15.974,12.101 17.12,12.101 "/><polygon fill="#FFEB3B" points="17.5,24 17.854,25.125 19,25.125 18.073,25.762 18.427,26.853 17.5,26.179 16.573,26.853 16.927,25.762 16,25.125 17.146,25.125 "/><polygon fill="#FFEB3B" points="21.5,15 21.854,16.125 23,16.125 22.073,16.762 22.427,17.853 21.5,17.179 20.573,17.853 20.927,16.762 20,16.125 21.146,16.125 "/><polygon fill="#FFEB3B" points="21.5,20 21.854,21.125 23,21.125 22.073,21.762 22.427,22.853 21.5,22.179 20.573,22.853 20.927,21.762 20,21.125 21.146,21.125 "/></g></svg>