<?xml version="1.0" encoding="utf-8"?><!-- Generator: Adobe Illustrator 15.0.0, SVG Export Plug-In . SVG Version: 6.00 Build 0)  --><!DOCTYPE svg PUBLIC "-//W3C//DTD SVG 1.1//EN" "http://www.w3.org/Graphics/SVG/1.1/DTD/svg11.dtd"><svg xmlns="http://www.w3.org/2000/svg" xmlns:xlink="http://www.w3.org/1999/xlink" viewBox="0 0 48 48" width="48px" height="48px"><rect x="2" y="9" fill="#4CAF50" width="44" height="30"/><rect x="2" y="9" fill="#ECEFF1" width="44" height="15"/><path fill="#FF3D00" d="M31.195,12.131c-0.001,0.002-0.001,0.002-0.002,0.004c0.002-0.002,0.003-0.004,0.005-0.004H31.195z M31.193,12.135c-2.837,1.615-5.377,3.299-7.874,5.442c-1.197,1.079-0.859,1.937-0.905,2.906c0.038,0.651-0.137,1.257-0.525,1.619c-0.887,0.186-1.776,0.372-2.664,0.557c-0.085-0.253-0.169-0.506-0.254-0.759c0.081-0.388,0.393-0.58,1.048-0.336c0.053-0.499-0.338-0.703-0.794-0.877c-0.156-0.125-0.352-0.222-0.326-0.653c-0.076-0.978,1.445,0.07,1.459,0.07c0.015,0-0.049-0.987-0.748-1.183c-0.383-0.141-0.544-0.557-0.397-0.863c0.305-0.627,0.879,0.049,1.318,0.074c-0.018-0.41-0.13-0.701-0.472-1.031c-0.185-0.117-0.638-0.204-0.649-0.4c-0.01-0.267,0.425-0.381,1.021-0.307c-0.124-0.373-0.524-0.613-1.076-0.789c-0.109-0.193-0.217-0.39-0.326-0.584c-0.154-0.295-0.224-0.303,0.134-0.86c0.321-0.214,0.749-0.517,1.07-0.731c-0.119-0.016-0.236-0.029-0.354-0.044c0.047-0.398,0.052-0.532,0.142-1.195c-0.344,0.484-0.775,0.398-1.162,0.599c0,0-1.104,0.201-1.46,0.685c-0.015,0-2.776-0.146-2.776-0.146c-0.59,0.084-1.092,0.258-1.189,0.849c-1.348,0.139-2.758,0.015-3.784,1.341c0.699-0.033,1.312-0.205,2.096-0.1c0,0,0.67,0.012,0.809,0.742c0.015,0.03,0.227,0.03,0.227,0.03c0.085,0.067,0.17,0.136,0.256,0.204c0.033-0.092,0.064-0.186,0.099-0.277c0.075,0.053,0.151,0.105,0.227,0.16c0.024-0.103,0.048-0.204,0.072-0.305c0.075,0.053,0.15,0.106,0.226,0.16c0.005-0.122,0.011-0.244,0.016-0.367c0.099,0.074,0.196,0.146,0.295,0.22v-0.481c0,0,1.099-0.002,1.433,0.715c0.014,0.016-3.079,0.587-6.065,0.322c0.288-0.145,0.577-0.293,0.864-0.438c-1.09-0.228-2.113-0.435-3.073-1.212c0.362,1.408,2.236,3.059,2.62,3.053c0,0.014-0.367-0.688-0.367-0.688c1.081,0.051,2.162,0.098,3.244,0.146c0.118,0.369,0.065,0.784,0.355,1.109c0,0-0.179,0.613,0.219,0.861c0.015,0.029,0.476-1.24,0.476-1.24s0.142,0.342,0.282,0.569c0.207-1.093,1.36-1.271,1.36-1.271s0.241,0.569,0.241,0.584c-0.361,0.054-0.81,0.813-0.567,1.227c-0.242,0.004-0.672,0.738-0.538,1.139c-0.203,0.207-0.709,0.486-0.581,1.359c-0.397,0.088-0.634,0.838-0.511,1.635c-0.616,0.59-0.464,1.676,0.085,2.115c-0.228,0.209-0.368,0.371-0.368,0.629c-0.218-0.083-0.417-0.015-0.511,0.133c-0.266-0.281-0.648-0.527-0.92-0.265c-0.07-0.333-0.491-0.697-0.95-0.656c0.026-0.351-0.149-0.782-0.637-0.936c0,0-0.1-1.642-0.582-2.176c-0.048-0.296,0.027-0.501,0.426-0.745c0.397-0.218,0.482-0.387,0.453-1.006c0.157-0.414,0.276-0.836-0.211-1.123c0.014,0.492-0.133,0.729-0.327,0.947c-0.231-0.035-0.313,0.244-0.469,0.365c-0.217-0.303,0.461-0.771-0.042-1.445c-0.029-0.031-0.351-0.881-1.147-0.861c0.379,0.229,0.539,0.613,0.538,1.008c-0.251,0.729-0.379,1.294-0.128,2.132C8.237,20.98,8.051,20.01,7.776,19.84c-0.24-0.049-0.356-0.633-1.289-0.467c0.401,0.111,0.528,0.429,0.638,0.716c-0.247,0.13-0.124,0.476,0.057,0.714c-0.036,0.561,0.29,0.889,0.778,1.098c-0.08,0.765-0.16,1.527-0.241,2.291c-0.193-0.025-0.492,0.751-0.609,0.774c-0.189,0.122-0.521,0.448-0.141,0.54c-0.113,0.42-0.218,0.673-0.823,0.76c0,0,0.641,0.393,1.17-0.278c0.57-0.015,0.383-0.714,0.658-1.021c0-0.015,0.156-0.114,0.384-0.73c0.1,0.55,0.646,2.231,1.884,3.066c1.078,1.19,1.965,2.313,1.955,3.899c0.421-0.404,0.672-1.043,0.866-1.651c0.585-0.21,1.421-0.29,2.169-0.255c-0.128,0.277-0.272,0.544-0.087,0.724c-0.521,0.185-0.636,0.575-0.427,0.964c-0.549,0.385-0.585,0.632-0.593,1.27c-1.018,1.342-1.645,1.299-2.65,0.949c-0.331-0.199-0.842-0.487-1.077-0.336c-0.436-0.297-1.061-0.342-1.163,0.336c0.326-0.279,0.521-0.225,0.781,0.043c-0.054,0.139-0.096,0.273,0.098,0.352c-0.085,0.098-0.169,0.195-0.254,0.291c-0.468-0.074-1.098-0.068-1.262,0.627c0.24-0.203,0.774-0.252,1.204-0.057c0.08,0.029,0.159,0.057,0.24,0.088c0.01,0.111,0.021,0.225,0.03,0.336c0,0-0.639-0.102-0.81,0.965c0.598-0.656,1.021-0.483,1.021-0.483c0.23,0.347,1.078,0.296,1.688-0.276c0.855-0.494,1.105,0.215,1.657-0.25c0.459-0.35,1.001-0.117,1.373,0.294c0.431,0.165,0.881,0.303,1.235,0c0,0,0.432-0.286,0.863,0.175c0.005-0.519-0.352-0.795-0.835-0.805l-0.143-0.146c-0.454-0.097-0.963-0.058-1.359-0.292c0.187-0.73,0.459-1.395,0.99-1.957c0.657-0.726,1.141-1.054,1.97-2.166c-0.032,0.628,0.435,1.326,0.68,1.963c0,0,0.496-0.814,0.568-1.477c0.014,0,0.62-0.326,0.878-0.602c0.547,0.35,1.437-0.279,2.013-0.799c0.354,0.139,0.623,0.129,1.034,0c-0.33,0.693,0.191,1.338,1.021,1.604c0.077,0.613,0.677,0.741,1.587,0.747c0.038,0.358,0.58,0.408,0.58,0.408c-0.343,0.165-0.521,0.33-0.51,0.701c-0.351,0.002-0.616,0.094-0.709,0.512c-0.482,0.008-0.973,0.046-1.388,0.291c-0.443-0.07-0.984-0.261-1.333-0.627c-0.18-0.156-0.224-0.381-0.538-0.467c-0.198-0.242-0.436-0.189-0.51,0.043c-0.206-0.166-0.977-0.243-1.105,0.512c0.359-0.271,0.682-0.375,0.908-0.045c-0.123,0.23,0.299,0.361,0.665,0.454c0.259,0.017,0.72,0.259,0.864,0.671c-0.334,0.104-0.842,0.07-1.176-0.191c-0.299-0.256-0.699-0.225-0.921-0.058c-0.307-0.201-1.035,0.179-1.063,0.788c0.307-0.291,0.586-0.432,0.865-0.248c-0.139,0.035-0.086,0.049-0.071,0.133c0.236,0.141,0.472,0.281,0.708,0.422c-0.348,0.096-0.675,0.236-0.523,0.905c0,0,0.283-0.577,0.921-0.366c0.014-0.014,0.088,0.207,0.27,0.06c0.275-0.324,0.906-0.469,1.459-0.524c0.444-0.055,0.888-0.189,1.274,0.07c0.346-0.182,0.729-0.305,1.121-0.013c0.463,0.151,0.802,0.706,1.388,0.452c0.293-0.207,0.652-0.22,1.02,0.206c0.005-0.534-0.384-0.713-0.935-0.833c-0.127-0.078-0.255-0.157-0.381-0.234c-0.354-0.055-0.711,0.012-1.065-0.161c1.854-0.493,3.153-1.56,4.068-3.079c0.294,0.105,0.585,0.213,0.877,0.319c0.209,0.015,0.225,0.088,0.653,0.22c0.016-0.65-0.256-1.318-1.389-1.387l-1.489-0.584c-0.314-0.344-0.458-1.072-0.056-1.505c0.394-0.36,0.463-0.317,0.723-0.759c0.316-0.029,0.614,0.308,0.907,0.308c0.139,0.424,0.938,0.799,1.445,0.671c0.317,0.29,0.925,0.452,1.587,0.218c0.378,0.341,0.867,0.483,1.444,0.218c0.153,0.159,0.478,0.285,0.851,0.207c0.028,0,0.189,0.421,0.596,0.569c-0.178,0.178-0.068,0.95,0.114,1.228c-0.124,0.295-0.163,0.611-0.059,0.919c-0.41,0.272-0.493,0.474-0.311,0.933c-0.536,0.891-1.181,0.993-1.785,0.718c-0.217-0.142-0.435-0.283-0.651-0.425c-0.231-0.234-0.464-0.466-0.695-0.7c-0.117-0.114-0.36-0.149-0.411,0.103c0,0-0.891-0.206-0.963,0.57c0.369-0.372,0.893-0.045,0.893-0.031c0,0.015-0.124,0.103-0.027,0.252c0.021-0.02,0.648,0.24,1.209,0.488c0.304,0.119,0.371,0.157,0.505,0.229c-0.146-0.068-0.318-0.147-0.505-0.229c-0.341-0.133-0.672-0.239-0.771-0.213c-0.317-0.03-0.653-0.072-0.809,0.174c-0.34,0.15-0.873,0.269-0.851,0.922c0.231-0.39,0.547-0.373,0.949-0.336c-0.01,0.027-0.018,0.057-0.026,0.085c0.438,0.207,0.354-0.055,0.762-0.094c0.341-0.03,0.824,0.094,1.08,0.184c-0.322,0.097-0.758,0.056-0.965,0.292c-0.037,0.076-0.17,0.047-0.111,0.232c0,0-0.626-0.018-0.794,0.875c0.636-0.42,1.119-0.406,1.133-0.406s0.198,0.044,0.198,0.044s0.765-0.528,0.779-0.528s0.74-0.33,1.076,0.045c0.293,0.147,0.605,0.158,0.908-0.029c0.596-0.268,1.153-0.286,1.701,0.089l0.494,0.306c0.071-0.049,0.143-0.099,0.213-0.146c0,0,0.561-0.163,0.972,0.351c-0.17-0.891-0.787-0.919-0.787-0.919c-0.046-0.043-0.095-0.088-0.143-0.133c-0.292-0.115-0.584-0.233-0.877-0.351c-0.127-0.325-0.449-0.585-0.128-0.976c0.326-1.676,0.717-2.935,0.085-4.631c0.59,0.263,1.031,1.074,1.771,0.789c0-0.682-2.435-1.976-4.294-3.015c3.047-0.161,6.708-2.479,5.301-5.425c0.223-0.71,0.443-1.421,0.666-2.133c0.313,0.651,0.947,1.148,1.517,1.359c-0.47-0.925-0.738-3.748-0.469-5.695c-1.228,1.563-2.583,2.948-4.023,4.359c0.708,0.168,1.328,0.049,2.013-0.037c-0.194,0.407-0.382,0.816-0.575,1.227c-1.873-1.129-4.071-0.281-4.087,1.227c0.064,1.76,2.175,2.008,3.391,1.396c-0.241,1.603-3.817,1.012-3.817,1.012c-1.271-0.45-2.477-0.372-3.813-0.362c0.278-0.881,1.818-1.659,2.991-1.314c-1.643-1.9,0.232-4.255,2.494-4.98c-2.465-0.836-0.343-2.772,1.501-4.16c0,0-5.304,2.299-5.787,2.293C30.209,14.963,30.62,13.125,31.193,12.135L31.193,12.135z M14.545,14.344c0.125,0,0.269,0.012,0.385,0.041c0.238,0.061,0.53,0.095,0.526,0.169c-0.111,0.19-0.384,0.42-0.651,0.407c-0.267-0.014-0.422-0.18-0.511-0.593C14.321,14.352,14.422,14.344,14.545,14.344z M36.873,20.828c0.348-0.004,0.765,0.146,1.172,0.592c-0.197,0.578-1.894,0.879-2.007,0.018C36.004,21.178,36.364,20.836,36.873,20.828L36.873,20.828z"/><g><path fill="#263238" d="M9.188,36l0.027-0.163c0.146-0.917,0.639-1.007,0.802-1.009l-0.021-0.246l-0.213-0.078c-0.175-0.079-0.371-0.12-0.569-0.12c-0.241,0-0.461,0.063-0.586,0.171L8.516,34.65l0.035-0.148c0.109-0.461,0.429-0.697,0.948-0.697c0.104,0,0.217,0.011,0.342,0.029l0.192-0.223c-0.045-0.028-0.077-0.063-0.095-0.104c-0.035-0.084-0.008-0.176,0.019-0.249c-0.133-0.134-0.235-0.191-0.34-0.191c-0.102,0-0.213,0.055-0.353,0.173l-0.099,0.085l0.02-0.132c0.057-0.371,0.28-0.584,0.612-0.584c0.191,0,0.407,0.072,0.602,0.199c0.046-0.023,0.102-0.035,0.165-0.035c0.263,0,0.635,0.203,0.931,0.383c0.307,0.104,0.632,0.203,0.936,0.203c0.561,0,1.038-0.326,1.646-1.125c0.009-0.643,0.061-0.897,0.578-1.269c-0.093-0.193-0.109-0.382-0.046-0.55c0.067-0.18,0.224-0.324,0.453-0.418c-0.122-0.186-0.016-0.424,0.093-0.656c-0.086-0.002-0.176-0.004-0.263-0.004c-0.68,0-1.331,0.092-1.792,0.25c-0.186,0.586-0.436,1.233-0.87,1.651l-0.083,0.077l0.001-0.115c0.009-1.579-0.872-2.683-1.939-3.859c-1.148-0.779-1.701-2.256-1.864-2.936c-0.108,0.266-0.216,0.46-0.321,0.578v0.002L8.01,25c-0.096,0.106-0.132,0.273-0.168,0.435c-0.061,0.271-0.129,0.581-0.501,0.602c-0.214,0.263-0.467,0.394-0.755,0.394c-0.265,0-0.457-0.114-0.466-0.121L6,26.236l0.139-0.021c0.56-0.079,0.665-0.298,0.77-0.674c-0.095-0.033-0.149-0.086-0.16-0.16c-0.028-0.174,0.207-0.376,0.335-0.457l0.008-0.005l0.01-0.002c0.032-0.015,0.12-0.169,0.186-0.283c0.151-0.263,0.27-0.456,0.389-0.488l0.232-2.214c-0.546-0.244-0.8-0.607-0.776-1.111c-0.068-0.094-0.232-0.35-0.186-0.57c0.016-0.075,0.057-0.139,0.118-0.184c-0.099-0.259-0.221-0.542-0.589-0.645l0.004-0.098c0.113-0.021,0.22-0.032,0.319-0.032c0.452,0,0.657,0.21,0.809,0.362c0.068,0.07,0.123,0.125,0.179,0.137l0.009,0.002l0.008,0.004c0.165,0.103,0.288,0.435,0.433,0.822c0.063,0.167,0.126,0.336,0.193,0.495c-0.12-0.679,0.022-1.189,0.22-1.765c-0.002-0.416-0.184-0.754-0.514-0.954l-0.148-0.09l0.172-0.004c0.009,0,0.018,0,0.028,0c0.326,0,0.79,0.146,1.142,0.848c0.008,0.015,0.013,0.024,0.016,0.03l0.001,0.002c0.319,0.428,0.184,0.789,0.084,1.053c-0.051,0.138-0.095,0.253-0.065,0.344c0.029-0.031,0.057-0.067,0.086-0.107c0.085-0.113,0.183-0.241,0.349-0.23c0.16-0.184,0.311-0.41,0.297-0.893l-0.003-0.092l0.076,0.047c0.511,0.299,0.399,0.744,0.237,1.174c0.027,0.618-0.063,0.814-0.479,1.043c-0.385,0.236-0.441,0.422-0.403,0.677c0.448,0.514,0.565,1.918,0.582,2.161c0.456,0.158,0.647,0.564,0.642,0.92c0.431-0.01,0.815,0.309,0.925,0.624c0.073-0.051,0.154-0.076,0.243-0.076c0.25,0,0.5,0.204,0.647,0.352c0.106-0.122,0.289-0.173,0.469-0.126c0.022-0.232,0.159-0.39,0.339-0.559c-0.266-0.236-0.438-0.633-0.456-1.05c-0.019-0.429,0.121-0.813,0.395-1.087c-0.114-0.783,0.115-1.518,0.51-1.653c-0.095-0.741,0.261-1.054,0.496-1.263c0.029-0.026,0.058-0.051,0.082-0.073c-0.069-0.269,0.071-0.646,0.237-0.889c0.095-0.141,0.195-0.235,0.285-0.271c-0.077-0.186-0.057-0.431,0.061-0.687c0.126-0.272,0.326-0.479,0.512-0.541c-0.04-0.1-0.135-0.325-0.205-0.491c-0.193,0.043-1.105,0.287-1.281,1.223l-0.022,0.123l-0.066-0.105c-0.093-0.147-0.186-0.342-0.238-0.463c-0.423,1.158-0.437,1.158-0.479,1.158h-0.03l-0.008-0.015c-0.366-0.242-0.266-0.757-0.235-0.884c-0.187-0.224-0.229-0.482-0.269-0.735c-0.019-0.113-0.036-0.229-0.068-0.341l-1.502-0.066c-0.541-0.023-1.082-0.047-1.622-0.072c0.114,0.219,0.265,0.502,0.31,0.582h0.021l0.002,0.027l0.072,0.07l-0.141,0.002H9.725c-0.237-0.027-0.801-0.453-1.336-1.014c-0.397-0.418-1.096-1.24-1.312-2.074L7.04,14.758l0.115,0.092c0.938,0.762,1.942,0.972,3.008,1.193l0.186,0.04l-0.129,0.064c-0.142,0.071-0.284,0.145-0.427,0.216c-0.092,0.048-0.185,0.096-0.277,0.143c0.471,0.037,0.97,0.055,1.487,0.055c0.731,0,1.432-0.036,2.05-0.087l-0.292-0.233c-0.227-0.002-0.243-0.035-0.254-0.059l-0.004-0.012c-0.13-0.683-0.755-0.703-0.761-0.703c-0.172-0.021-0.337-0.033-0.513-0.033c-0.313,0-0.61,0.036-0.898,0.07c-0.221,0.027-0.447,0.054-0.682,0.064l-0.107,0.006l0.066-0.087c0.883-1.14,2.058-1.228,3.195-1.311c0.191-0.013,0.391-0.028,0.585-0.048c0.123-0.61,0.687-0.773,1.225-0.85l0.005-0.002l0.004,0.002c0.025,0,2.479,0.129,2.751,0.143c0.367-0.462,1.365-0.662,1.467-0.682c0.133-0.068,0.27-0.103,0.401-0.137c0.267-0.069,0.519-0.135,0.739-0.442l0.087,0.036c-0.061,0.447-0.082,0.648-0.105,0.862c-0.009,0.088-0.02,0.175-0.031,0.284l0.44,0.053l-0.113,0.077c-0.16,0.106-0.35,0.236-0.534,0.364c-0.181,0.125-0.366,0.253-0.526,0.359c-0.304,0.476-0.282,0.516-0.166,0.728c0.012,0.022,0.025,0.047,0.039,0.073l0.316,0.565c0.625,0.2,0.971,0.46,1.09,0.814l0.024,0.077l-0.077-0.012c-0.115-0.014-0.228-0.02-0.33-0.02c-0.283,0-0.497,0.056-0.588,0.151c-0.033,0.036-0.049,0.077-0.047,0.124c0.006,0.098,0.212,0.18,0.378,0.246c0.094,0.037,0.183,0.072,0.247,0.113l0.007,0.006c0.333,0.322,0.471,0.621,0.488,1.066l0.002,0.056l-0.054-0.003c-0.156-0.01-0.326-0.093-0.488-0.174s-0.33-0.166-0.473-0.166c-0.135,0-0.233,0.076-0.313,0.238c-0.061,0.13-0.063,0.285-0.006,0.43c0.066,0.167,0.204,0.297,0.377,0.361c0.699,0.197,0.795,1.14,0.783,1.235l-0.006,0.044l-0.045,0.002c-0.015,0-0.016,0-0.061-0.029c-0.602-0.379-0.922-0.458-1.085-0.458c-0.091,0-0.158,0.024-0.202,0.071c-0.052,0.059-0.072,0.157-0.063,0.291v0.005v0.003c-0.021,0.359,0.114,0.463,0.258,0.572c0.015,0.012,0.028,0.023,0.043,0.035c0.447,0.169,0.876,0.384,0.82,0.926l-0.007,0.063l-0.06-0.022c-0.188-0.07-0.354-0.105-0.492-0.105c-0.266,0-0.431,0.132-0.489,0.393l0.235,0.703c0.417-0.088,0.833-0.174,1.248-0.261c0.454-0.095,0.909-0.189,1.362-0.284c0.355-0.342,0.538-0.914,0.499-1.57c0.009-0.197,0.003-0.389-0.003-0.574c-0.025-0.769-0.05-1.496,0.926-2.373c2.29-1.967,4.717-3.645,7.87-5.441l0.009-0.016h0.021L31.329,12l-0.093,0.159c-0.419,0.722-0.685,1.761-0.385,2.36c0.155,0.307,0.447,0.479,0.868,0.512c0.386,0,3.94-1.498,5.766-2.289l0.048,0.088c-0.68,0.511-2.753,2.07-2.59,3.141c0.062,0.395,0.423,0.709,1.074,0.931l0.146,0.049l-0.146,0.047c-1.477,0.474-2.683,1.586-3,2.765c-0.205,0.76-0.022,1.497,0.528,2.133l0.112,0.129l-0.161-0.047c-0.185-0.053-0.383-0.081-0.593-0.081c-0.985,0-2.043,0.599-2.315,1.298c0.13-0.002,0.258-0.004,0.386-0.006c0.227-0.003,0.442-0.006,0.66-0.006c0.988,0,1.827,0.064,2.708,0.376c0.057,0.009,0.676,0.106,1.392,0.106c0.969,0,2.143-0.174,2.347-0.981c-0.376,0.171-0.822,0.265-1.268,0.265c-0.941,0-2.058-0.457-2.104-1.746c0.011-1.026,1.009-1.798,2.322-1.798c0.614,0,1.232,0.172,1.793,0.498c0.088-0.186,0.175-0.373,0.262-0.561c0.083-0.179,0.166-0.356,0.25-0.534c-0.052,0.006-0.104,0.014-0.156,0.021c-0.347,0.047-0.674,0.091-1.017,0.091c-0.271,0-0.521-0.029-0.767-0.087l-0.09-0.023l0.066-0.063c1.343-1.314,2.761-2.75,4.021-4.354l0.11-0.143l-0.024,0.182c-0.278,2.01,0.021,4.795,0.463,5.664L42,20.209l-0.117-0.043c-0.612-0.227-1.184-0.719-1.49-1.276c-0.099,0.317-0.198,0.633-0.296,0.948c-0.109,0.352-0.219,0.701-0.328,1.053c0.433,0.916,0.404,1.855-0.083,2.71c-0.932,1.634-3.235,2.606-5.098,2.755c0.104,0.058,0.209,0.115,0.315,0.176c1.807,1.005,3.854,2.145,3.854,2.801v0.034l-0.03,0.013c-0.11,0.043-0.219,0.063-0.326,0.063c-0.36,0-0.654-0.241-0.938-0.476c-0.141-0.116-0.286-0.236-0.438-0.322c0.507,1.453,0.268,2.617-0.008,3.959c-0.04,0.188-0.079,0.381-0.118,0.578l-0.003,0.014l-0.008,0.01c-0.22,0.269-0.108,0.465,0.018,0.689c0.04,0.069,0.079,0.141,0.112,0.217c0.139,0.056,0.279,0.111,0.418,0.168c0.146,0.058,0.293,0.117,0.439,0.175l0.009,0.003l0.006,0.006c0.023,0.023,0.048,0.045,0.073,0.068c0.019,0.017,0.038,0.036,0.058,0.053c0.108,0.014,0.656,0.128,0.814,0.959l-0.085,0.043c-0.237-0.297-0.524-0.359-0.724-0.359c-0.099,0-0.171,0.016-0.191,0.021c-0.032,0.023-0.066,0.046-0.099,0.068c-0.035,0.024-0.071,0.049-0.106,0.073l-0.026,0.02l-0.521-0.323c-0.275-0.188-0.554-0.279-0.854-0.279c-0.25,0-0.512,0.063-0.799,0.191c-0.298,0.184-0.629,0.194-0.952,0.03l-0.008-0.004l-0.006-0.008c-0.097-0.107-0.241-0.163-0.43-0.163c-0.165,0-0.358,0.043-0.572,0.126c-0.01,0.004-0.017,0.006-0.021,0.008c-0.053,0.029-0.484,0.324-0.769,0.521l-0.019,0.013l-0.02-0.006c-0.084-0.02-0.178-0.039-0.191-0.041c-0.087,0-0.528,0.018-1.104,0.398l-0.096,0.063l0.021-0.116c0.143-0.757,0.614-0.889,0.781-0.912c-0.015-0.104,0.035-0.144,0.089-0.177c0.021-0.013,0.035-0.021,0.041-0.032l0.007-0.012c0.15-0.172,0.402-0.206,0.646-0.24c0.054-0.008,0.108-0.017,0.161-0.025c-0.234-0.068-0.53-0.129-0.771-0.129c-0.039,0-0.078,0.001-0.111,0.006c-0.152,0.014-0.23,0.061-0.298,0.102c-0.061,0.036-0.117,0.07-0.205,0.07c-0.074,0-0.165-0.025-0.284-0.083l-0.041-0.019l0.014-0.043c0.004-0.01,0.007-0.018,0.011-0.025c-0.08-0.008-0.158-0.013-0.231-0.013c-0.251,0-0.449,0.055-0.611,0.329l-0.084,0.144l-0.006-0.167c-0.023-0.609,0.423-0.787,0.747-0.916c0.042-0.016,0.08-0.031,0.119-0.048c0.125-0.186,0.346-0.208,0.503-0.208c0.102,0,0.209,0.01,0.313,0.021l0.021,0.002c0.007,0,0.016-0.002,0.023-0.002c-0.23-0.097-0.393-0.157-0.444-0.171l-0.026,0.023l-0.03-0.049c-0.079-0.121-0.035-0.213-0.001-0.266c-0.068-0.037-0.224-0.107-0.396-0.107c-0.152,0-0.284,0.054-0.392,0.162l-0.095,0.096l0.012-0.137c0.052-0.557,0.501-0.641,0.763-0.641c0.091,0,0.168,0.011,0.214,0.019c0.038-0.115,0.125-0.181,0.239-0.181c0.084,0,0.177,0.036,0.242,0.1c0.112,0.113,0.227,0.229,0.339,0.342c0.117,0.119,0.234,0.236,0.352,0.355c0.104,0.066,0.207,0.135,0.312,0.201c0.11,0.073,0.221,0.146,0.333,0.219c0.664,0.301,1.247,0.07,1.708-0.678c-0.171-0.443-0.1-0.674,0.307-0.949c-0.086-0.281-0.065-0.581,0.061-0.895c-0.165-0.279-0.273-0.947-0.135-1.209c-0.291-0.131-0.449-0.393-0.52-0.508c-0.006-0.01-0.013-0.021-0.018-0.03c-0.07,0.015-0.142,0.021-0.211,0.021c-0.29,0-0.51-0.109-0.632-0.221c-0.194,0.084-0.388,0.127-0.574,0.127c-0.313,0-0.606-0.116-0.87-0.348c-0.207,0.07-0.418,0.105-0.623,0.105c-0.378,0-0.729-0.119-0.967-0.326c-0.064,0.014-0.135,0.02-0.207,0.02c-0.516,0-1.113-0.334-1.261-0.696c-0.137-0.013-0.273-0.083-0.404-0.153c-0.145-0.078-0.292-0.158-0.438-0.153c-0.18,0.296-0.273,0.374-0.441,0.509c-0.072,0.059-0.162,0.13-0.279,0.238c-0.388,0.418-0.233,1.106,0.052,1.424l1.472,0.577c1.206,0.075,1.441,0.823,1.427,1.437l-0.002,0.068l-0.062-0.02c-0.199-0.063-0.313-0.111-0.395-0.148c-0.092-0.041-0.142-0.063-0.247-0.071l-0.013-0.002l-0.841-0.307c-0.941,1.549-2.229,2.54-3.933,3.029c0.182,0.06,0.365,0.065,0.556,0.073c0.117,0.004,0.239,0.008,0.36,0.027l0.009,0.002l0.009,0.005c0.063,0.04,0.127,0.078,0.189,0.117c0.062,0.036,0.124,0.075,0.186,0.114c0.583,0.127,0.971,0.326,0.966,0.88l-0.001,0.13l-0.084-0.098c-0.311-0.354-0.641-0.422-0.956-0.197l-0.008,0.006c-0.109,0.047-0.213,0.07-0.318,0.07c-0.261,0-0.476-0.146-0.682-0.286c-0.142-0.097-0.275-0.188-0.424-0.236l-0.014-0.006c-0.149-0.11-0.304-0.165-0.472-0.165c-0.224,0-0.437,0.098-0.598,0.182l-0.025,0.015l-0.022-0.017c-0.149-0.101-0.317-0.147-0.53-0.147c-0.155,0-0.314,0.024-0.482,0.052c-0.076,0.012-0.153,0.023-0.23,0.032c-0.703,0.072-1.211,0.253-1.429,0.507l-0.006,0.008c-0.051,0.041-0.102,0.063-0.148,0.063c-0.094,0-0.146-0.076-0.172-0.111c-0.001-0.002-0.002-0.002-0.003-0.004c-0.087-0.027-0.17-0.043-0.249-0.043c-0.41,0-0.596,0.369-0.605,0.385l-0.06,0.121l-0.031-0.133c-0.143-0.633,0.134-0.829,0.447-0.931l-0.629-0.376l-0.004-0.023c-0.002-0.015-0.007-0.029-0.011-0.041c-0.009-0.023-0.019-0.052-0.003-0.084c0.004-0.008,0.009-0.014,0.016-0.02c-0.201-0.078-0.418,0.008-0.714,0.289l-0.088,0.082l0.006-0.121c0.024-0.544,0.555-0.891,0.908-0.891c0.077,0,0.144,0.016,0.202,0.045c0.113-0.077,0.264-0.121,0.417-0.121c0.196,0,0.386,0.071,0.536,0.201c0.19,0.146,0.468,0.232,0.758,0.232c0.112,0,0.224-0.013,0.321-0.039c-0.154-0.354-0.563-0.57-0.801-0.587h-0.009c-0.326-0.083-0.638-0.182-0.708-0.349c-0.021-0.047-0.021-0.098-0.002-0.148c-0.183-0.242-0.432-0.217-0.823,0.078l-0.098,0.074l0.021-0.124c0.071-0.414,0.355-0.661,0.758-0.661c0.139,0,0.278,0.033,0.373,0.086c0.054-0.111,0.149-0.177,0.261-0.177c0.104,0,0.21,0.057,0.3,0.163c0.215,0.063,0.31,0.188,0.4,0.31c0.043,0.06,0.086,0.114,0.143,0.162c0.402,0.425,1.025,0.569,1.291,0.614c0.426-0.244,0.922-0.28,1.36-0.288c0.108-0.423,0.406-0.501,0.698-0.512c0.004-0.315,0.15-0.483,0.405-0.629c-0.166-0.04-0.417-0.143-0.469-0.381c-0.886-0.009-1.493-0.146-1.591-0.757c-0.515-0.175-0.896-0.484-1.051-0.856c-0.095-0.228-0.098-0.472-0.011-0.71c-0.18,0.049-0.324,0.072-0.462,0.072c-0.155,0-0.308-0.029-0.477-0.093c-0.382,0.343-1.086,0.893-1.655,0.893c-0.134,0-0.254-0.03-0.359-0.088c-0.224,0.222-0.69,0.503-0.841,0.573c-0.082,0.658-0.551,1.436-0.571,1.469l-0.052,0.084l-0.034-0.093c-0.071-0.185-0.16-0.371-0.253-0.566c-0.199-0.421-0.406-0.856-0.431-1.269c-0.507,0.665-0.89,1.043-1.261,1.41c-0.198,0.195-0.403,0.399-0.624,0.645c-0.454,0.479-0.754,1.065-0.972,1.896c0.251,0.136,0.551,0.168,0.843,0.2c0.155,0.017,0.317,0.034,0.471,0.067l0.014,0.004l0.14,0.143c0.538,0.018,0.868,0.344,0.863,0.854l-0.001,0.123l-0.083-0.088c-0.153-0.165-0.323-0.246-0.505-0.246c-0.16,0-0.277,0.066-0.296,0.076c-0.148,0.127-0.322,0.188-0.53,0.188c-0.255,0-0.521-0.094-0.749-0.181l-0.011-0.005l-0.008-0.008c-0.259-0.285-0.568-0.449-0.85-0.449c-0.165,0-0.319,0.057-0.458,0.163c-0.143,0.119-0.281,0.175-0.434,0.175c-0.099,0-0.195-0.023-0.295-0.047c-0.108-0.027-0.222-0.053-0.353-0.053c-0.184,0-0.372,0.057-0.579,0.172c-0.337,0.316-0.778,0.504-1.181,0.504c-0.256,0-0.46-0.082-0.564-0.225c-0.018-0.004-0.057-0.014-0.109-0.014c-0.149,0-0.458,0.065-0.844,0.488L9.188,36z M32.105,35.004c-0.059,0-0.54,0.02-0.719,0.719c0.551-0.334,0.971-0.353,1.053-0.353h0.006c0.007,0,0.02,0,0.19,0.041c0.635-0.437,0.745-0.509,0.776-0.521l0,0c0.003-0.002,0.009-0.004,0.017-0.006c0.226-0.088,0.43-0.132,0.606-0.132c0.213,0,0.379,0.063,0.494,0.188c0.293,0.146,0.585,0.136,0.854-0.032l0.006-0.002c0.302-0.135,0.576-0.201,0.841-0.201c0.321,0,0.618,0.097,0.906,0.295l0.467,0.289c0.028-0.019,0.055-0.038,0.081-0.057c0.036-0.025,0.07-0.05,0.106-0.074l0.014-0.006c0.004-0.001,0.093-0.027,0.225-0.027c0.186,0,0.438,0.05,0.669,0.258c-0.198-0.664-0.676-0.699-0.698-0.701h-0.017l-0.013-0.013c-0.023-0.021-0.048-0.042-0.07-0.063c-0.021-0.02-0.045-0.04-0.066-0.061c-0.145-0.057-0.287-0.114-0.43-0.172c-0.146-0.059-0.292-0.117-0.439-0.176l-0.02-0.008l-0.007-0.021c-0.031-0.077-0.073-0.151-0.114-0.224c-0.132-0.234-0.27-0.478-0.017-0.795c0.038-0.194,0.077-0.384,0.114-0.568c0.293-1.418,0.524-2.539-0.029-4.021l-0.041-0.111l0.106,0.047c0.203,0.092,0.388,0.243,0.568,0.391c0.283,0.234,0.549,0.455,0.876,0.455c0.085,0,0.17-0.014,0.257-0.045c-0.077-0.605-2.14-1.753-3.802-2.677c-0.158-0.089-0.313-0.175-0.465-0.261l-0.152-0.084l0.173-0.01c1.865-0.098,4.246-1.063,5.188-2.716c0.479-0.842,0.504-1.729,0.072-2.636l-0.009-0.018l0.006-0.019c0.11-0.356,0.223-0.714,0.334-1.07c0.109-0.354,0.221-0.707,0.33-1.062l0.038-0.118l0.052,0.112c0.263,0.539,0.794,1.033,1.378,1.285c-0.442-1.033-0.654-3.638-0.443-5.434c-1.214,1.527-2.565,2.902-3.853,4.162c0.211,0.043,0.425,0.063,0.656,0.063c0.336,0,0.661-0.043,1.005-0.09c0.081-0.011,0.163-0.021,0.246-0.032l0.089-0.013l-0.039,0.086c-0.098,0.204-0.193,0.409-0.29,0.615c-0.094,0.205-0.188,0.407-0.285,0.611l-0.024,0.049l-0.044-0.027c-0.557-0.337-1.176-0.514-1.789-0.514c-1.258,0-2.214,0.729-2.225,1.696c0.044,1.215,1.065,1.647,2.007,1.647c0.467,0,0.933-0.104,1.314-0.298l0.084-0.043l-0.016,0.096c-0.144,0.961-1.418,1.162-2.462,1.162c-0.754,0-1.404-0.105-1.411-0.107l-0.008-0.002c-0.869-0.309-1.701-0.371-2.681-0.371c-0.217,0-0.433,0.002-0.659,0.006c-0.151,0-0.303,0.003-0.457,0.005h-0.065l0.02-0.066c0.241-0.763,1.378-1.433,2.432-1.433c0.163,0,0.321,0.016,0.471,0.047c-0.496-0.634-0.652-1.36-0.451-2.107c0.314-1.174,1.482-2.281,2.927-2.787c-0.603-0.231-0.939-0.555-1.002-0.962c-0.142-0.925,1.161-2.104,2.303-2.989c-1.222,0.525-5.002,2.135-5.432,2.135h-0.006c-0.457-0.035-0.776-0.227-0.947-0.566c-0.308-0.613-0.071-1.586,0.3-2.299l-0.008,0.004h0.001c-3.076,1.762-5.459,3.415-7.707,5.346c-0.939,0.846-0.916,1.549-0.893,2.293c0.007,0.188,0.013,0.381,0.003,0.577c0.042,0.688-0.155,1.294-0.54,1.655l-0.01,0.009l-0.014,0.003c-0.458,0.096-0.916,0.191-1.375,0.289c-0.43,0.087-0.86,0.179-1.289,0.267l-0.042,0.011l-0.273-0.814l0.003-0.015c0.095-0.449,0.464-0.597,1.053-0.395c0.011-0.386-0.276-0.573-0.767-0.761l-0.014-0.006c-0.017-0.014-0.032-0.025-0.049-0.038c-0.149-0.114-0.319-0.245-0.296-0.656c-0.013-0.161,0.018-0.284,0.089-0.362c0.192-0.215,0.661-0.097,1.368,0.342c-0.028-0.242-0.179-0.895-0.711-1.045c-0.203-0.074-0.361-0.225-0.438-0.418c-0.067-0.171-0.064-0.358,0.01-0.512c0.096-0.199,0.228-0.296,0.399-0.296c0.164,0,0.343,0.089,0.516,0.175c0.135,0.068,0.271,0.137,0.396,0.157c-0.026-0.385-0.152-0.644-0.451-0.935c-0.055-0.033-0.139-0.066-0.226-0.101c-0.212-0.085-0.431-0.171-0.44-0.337c-0.002-0.074,0.022-0.143,0.074-0.197c0.111-0.118,0.345-0.184,0.658-0.184c0.082,0,0.169,0.004,0.259,0.013c-0.132-0.283-0.465-0.507-1.014-0.681l-0.019-0.006l-0.335-0.602c-0.014-0.027-0.027-0.051-0.039-0.073c-0.138-0.253-0.156-0.323,0.176-0.84l0.005-0.009l0.009-0.008c0.16-0.105,0.35-0.236,0.534-0.364c0.142-0.099,0.288-0.198,0.422-0.29l-0.271-0.032l0.007-0.051c0.015-0.128,0.025-0.23,0.037-0.333c0.02-0.183,0.039-0.359,0.082-0.692c-0.214,0.226-0.451,0.288-0.683,0.347c-0.134,0.035-0.263,0.069-0.387,0.133l-0.013,0.004c-0.011,0.002-1.09,0.203-1.43,0.666l-0.015,0.021h-0.024c-0.015,0-2.121-0.112-2.774-0.145c-0.538,0.076-1.049,0.229-1.144,0.805l-0.006,0.037l-0.037,0.004c-0.208,0.021-0.421,0.036-0.625,0.051c-1.136,0.086-2.21,0.163-3.055,1.185c0.191-0.013,0.381-0.035,0.564-0.058c0.291-0.033,0.591-0.071,0.909-0.071c0.18,0,0.35,0.012,0.52,0.035l0,0c0.01,0,0.69,0.025,0.845,0.76c0.035,0.008,0.117,0.012,0.184,0.012h0.018l0.215,0.174c0.009-0.024,0.017-0.05,0.026-0.074c0.017-0.046,0.033-0.093,0.049-0.139l0.022-0.063l0.221,0.157l0.071-0.306l0.058,0.041c0.038,0.026,0.076,0.054,0.113,0.08c0.014,0.01,0.027,0.02,0.04,0.029c0.001-0.029,0.003-0.059,0.004-0.088c0.003-0.062,0.005-0.123,0.008-0.188l0.003-0.094l0.295,0.218v-0.433h0.047c0.047,0,1.127,0.008,1.473,0.735l0.018,0.019l-0.013,0.03c-0.012,0.029-0.015,0.036-0.396,0.098c-0.198,0.032-0.527,0.083-0.96,0.135c-0.728,0.085-1.854,0.189-3.085,0.189c-0.586,0-1.148-0.022-1.673-0.069l-0.175-0.017l0.158-0.079c0.146-0.074,0.291-0.148,0.437-0.223c0.1-0.051,0.199-0.101,0.298-0.15c-0.995-0.209-1.94-0.422-2.833-1.099c0.413,1.27,1.938,2.651,2.432,2.845c-0.05-0.092-0.143-0.265-0.313-0.588l-0.04-0.078l0.086,0.004c0.568,0.024,1.138,0.051,1.708,0.076l1.57,0.07l0.011,0.033c0.04,0.126,0.062,0.26,0.082,0.387c0.041,0.256,0.079,0.5,0.262,0.705l0.02,0.021l-0.009,0.027c-0.002,0.006-0.148,0.531,0.155,0.773c0.073-0.17,0.303-0.789,0.446-1.186l0.044-0.118l0.046,0.116c0.002,0.003,0.104,0.248,0.22,0.457c0.27-1.006,1.361-1.186,1.372-1.188l0.037-0.006l0.015,0.034c0.245,0.579,0.245,0.592,0.245,0.604v0.043l-0.041,0.007c-0.166,0.025-0.375,0.234-0.496,0.499c-0.117,0.253-0.13,0.49-0.036,0.65l0.043,0.075l-0.084,0.002c-0.068,0.002-0.179,0.096-0.277,0.243c-0.164,0.241-0.291,0.603-0.216,0.829l0.01,0.029l-0.021,0.021c-0.03,0.032-0.068,0.066-0.108,0.103c-0.224,0.197-0.563,0.496-0.458,1.214l0.007,0.047l-0.046,0.011c-0.368,0.081-0.59,0.818-0.472,1.577l0.004,0.026l-0.019,0.019c-0.264,0.255-0.4,0.62-0.383,1.026c0.017,0.411,0.195,0.799,0.464,1.014l0.047,0.037l-0.044,0.04c-0.239,0.22-0.353,0.362-0.353,0.591v0.072l-0.065-0.025c-0.18-0.068-0.369-0.02-0.454,0.113l-0.032,0.053l-0.042-0.045c-0.219-0.23-0.443-0.361-0.617-0.361c-0.09,0-0.167,0.033-0.235,0.098l-0.063,0.062l-0.019-0.087c-0.065-0.309-0.459-0.657-0.897-0.616l-0.059,0.005l0.004-0.061c0.026-0.338-0.149-0.741-0.602-0.882l-0.032-0.011l-0.002-0.034c-0.001-0.017-0.103-1.632-0.569-2.144l-0.011-0.013l-0.002-0.015c-0.054-0.346,0.067-0.563,0.449-0.797c0.371-0.203,0.459-0.338,0.43-0.961V20.46l0.004-0.011c0.151-0.398,0.245-0.752-0.117-1.012c-0.005,0.424-0.135,0.658-0.34,0.891l-0.017,0.02L9.81,20.344c-0.126-0.019-0.202,0.082-0.283,0.189c-0.045,0.059-0.093,0.121-0.148,0.165l-0.04,0.03L9.31,20.688c-0.103-0.143-0.04-0.311,0.027-0.49c0.101-0.268,0.216-0.57-0.069-0.953c-0.007-0.008-0.013-0.021-0.027-0.05c-0.234-0.467-0.54-0.729-0.912-0.782c0.271,0.224,0.418,0.554,0.417,0.947v0.008l-0.003,0.008c-0.229,0.667-0.383,1.244-0.126,2.102l-0.087,0.042c-0.152-0.234-0.272-0.556-0.387-0.864c-0.129-0.348-0.251-0.676-0.385-0.768c-0.081-0.02-0.146-0.085-0.221-0.16c-0.146-0.148-0.327-0.332-0.739-0.332c-0.037,0-0.074,0-0.113,0.004c0.291,0.154,0.397,0.438,0.485,0.672l0.017,0.042l-0.04,0.021c-0.058,0.031-0.093,0.076-0.105,0.138c-0.027,0.126,0.043,0.321,0.178,0.501l0.011,0.017l-0.001,0.02c-0.028,0.481,0.21,0.813,0.75,1.046l0.034,0.015l-0.25,2.38l-0.051-0.006l0,0c-0.087,0-0.247,0.276-0.342,0.443c-0.111,0.195-0.177,0.305-0.241,0.327c-0.15,0.099-0.299,0.261-0.285,0.351c0.008,0.053,0.078,0.08,0.137,0.094l0.049,0.012l-0.014,0.052c-0.105,0.394-0.212,0.651-0.698,0.765c0.071,0.023,0.164,0.045,0.269,0.045c0.263,0,0.496-0.127,0.692-0.373l0.015-0.02h0.021c0.316-0.008,0.371-0.248,0.432-0.526c0.038-0.171,0.077-0.349,0.187-0.474c0.005-0.008,0.011-0.014,0.018-0.022c0.116-0.128,0.237-0.362,0.361-0.696l0.062-0.17l0.031,0.178c0.096,0.525,0.643,2.21,1.863,3.034l0.009,0.009c1.056,1.163,1.934,2.258,1.967,3.813c0.376-0.408,0.601-1.009,0.771-1.548l0.008-0.023l0.024-0.008c0.471-0.169,1.143-0.267,1.845-0.267c0.115,0,0.229,0.004,0.342,0.009l0.073,0.003l-0.058,0.123c-0.117,0.251-0.218,0.468-0.07,0.611l0.058,0.057l-0.076,0.027c-0.238,0.084-0.397,0.217-0.461,0.387c-0.057,0.15-0.035,0.324,0.063,0.505l0.021,0.04l-0.037,0.025c-0.534,0.375-0.564,0.609-0.573,1.229v0.017l-0.01,0.014c-0.633,0.836-1.136,1.176-1.732,1.176c-0.319,0-0.656-0.1-0.972-0.211l-0.009-0.004c-0.285-0.173-0.646-0.371-0.886-0.371c-0.059,0-0.105,0.013-0.142,0.035l-0.026,0.017l-0.027-0.017c-0.183-0.127-0.392-0.199-0.571-0.199c-0.178,0-0.395,0.068-0.486,0.371c0.11-0.078,0.21-0.113,0.306-0.113c0.139,0,0.268,0.072,0.432,0.243l0.024,0.023l-0.013,0.029c-0.031,0.081-0.054,0.151-0.033,0.203c0.014,0.034,0.049,0.06,0.104,0.083l0.066,0.025l-0.32,0.367l-0.025-0.004c-0.13-0.021-0.246-0.031-0.353-0.031c-0.424,0-0.692,0.162-0.815,0.492c0.142-0.074,0.326-0.115,0.531-0.115c0.211,0,0.422,0.043,0.605,0.129l0.269,0.096l0.036,0.433l-0.061-0.011c-0.011,0-0.528-0.068-0.722,0.762c0.34-0.327,0.618-0.4,0.801-0.4c0.097,0,0.15,0.021,0.158,0.024l0.014,0.006l0.009,0.013c0.082,0.124,0.262,0.195,0.493,0.195c0.381,0,0.799-0.181,1.121-0.48l0.009-0.009c0.221-0.128,0.428-0.189,0.63-0.189c0.143,0,0.266,0.032,0.377,0.058c0.094,0.023,0.183,0.045,0.271,0.045c0.131,0,0.246-0.049,0.373-0.156c0.159-0.121,0.333-0.183,0.519-0.183c0.306,0,0.639,0.172,0.913,0.472c0.27,0.104,0.492,0.172,0.704,0.172c0.185,0,0.339-0.055,0.472-0.167l0.005-0.005c0.005-0.004,0.146-0.095,0.35-0.095c0.173,0,0.336,0.063,0.484,0.191c-0.047-0.383-0.335-0.622-0.78-0.631l-0.02-0.001l-0.146-0.15c-0.145-0.029-0.298-0.046-0.447-0.063c-0.314-0.034-0.639-0.069-0.913-0.23l-0.031-0.021l0.009-0.036c0.223-0.868,0.532-1.479,1.004-1.979c0.223-0.246,0.428-0.45,0.628-0.648c0.389-0.383,0.791-0.781,1.337-1.514l0.096-0.127l-0.008,0.162c-0.021,0.43,0.203,0.905,0.422,1.367c0.075,0.156,0.152,0.32,0.217,0.479c0.127-0.224,0.455-0.85,0.511-1.369l0.006-0.043h0.034c0.078-0.037,0.616-0.335,0.853-0.588l0.028-0.029l0.033,0.021c0.097,0.063,0.211,0.094,0.341,0.094c0.549,0,1.245-0.556,1.612-0.888l0.021-0.019l0.028,0.01c0.169,0.065,0.318,0.098,0.47,0.098s0.316-0.032,0.534-0.1l0.107-0.032l-0.05,0.104c-0.117,0.246-0.127,0.49-0.029,0.727c0.146,0.35,0.518,0.645,1.021,0.808l0.029,0.011l0.005,0.029c0.071,0.578,0.642,0.697,1.538,0.701h0.044l0.005,0.047c0.033,0.314,0.531,0.363,0.536,0.364l0.182,0.018l-0.165,0.077c-0.321,0.154-0.492,0.304-0.481,0.654l0.002,0.052l-0.051,0.001c-0.334,0.002-0.575,0.083-0.661,0.471l-0.009,0.039h-0.039c-0.44,0.008-0.944,0.037-1.364,0.287l-0.016,0.008l-0.017-0.002c-0.266-0.043-0.932-0.191-1.359-0.644c-0.061-0.051-0.108-0.114-0.153-0.175c-0.087-0.117-0.169-0.225-0.363-0.279l-0.014-0.004l-0.01-0.013c-0.074-0.09-0.158-0.139-0.236-0.139c-0.086,0-0.158,0.063-0.191,0.167l-0.022,0.068l-0.055-0.044c-0.061-0.051-0.197-0.1-0.365-0.1c-0.154,0-0.504,0.047-0.631,0.454c0.186-0.124,0.343-0.186,0.48-0.186c0.154,0,0.285,0.076,0.39,0.229l0.017,0.027l-0.014,0.025c-0.023,0.045-0.016,0.072-0.009,0.09c0.062,0.145,0.478,0.249,0.639,0.289c0.282,0.021,0.751,0.275,0.901,0.703l0.019,0.052l-0.05,0.017c-0.119,0.036-0.258,0.057-0.401,0.057c-0.312,0-0.609-0.094-0.819-0.256c-0.133-0.115-0.301-0.18-0.475-0.18c-0.145,0-0.284,0.047-0.387,0.121l-0.026,0.021l-0.027-0.02c-0.048-0.029-0.108-0.047-0.179-0.047c-0.279,0-0.702,0.262-0.794,0.665c0.204-0.171,0.378-0.253,0.54-0.253c0.099,0,0.195,0.031,0.286,0.092l0.097,0.063l-0.111,0.027c-0.027,0.006-0.043,0.011-0.052,0.015l0,0c0.004,0.01,0.008,0.021,0.011,0.035l0.793,0.475l-0.115,0.029c-0.326,0.09-0.59,0.207-0.511,0.725c0.097-0.13,0.299-0.33,0.624-0.33c0.089,0,0.184,0.016,0.278,0.047c0.024,0.002,0.038,0.021,0.051,0.039c0.027,0.035,0.054,0.071,0.095,0.071c0.024,0,0.052-0.015,0.085-0.04c0.302-0.348,0.975-0.483,1.488-0.537c0.074-0.01,0.15-0.021,0.227-0.032c0.164-0.025,0.333-0.051,0.496-0.051c0.222,0,0.399,0.047,0.559,0.146c0.167-0.087,0.385-0.179,0.617-0.179c0.187,0,0.358,0.057,0.522,0.179c0.158,0.052,0.302,0.149,0.44,0.243c0.204,0.139,0.396,0.271,0.628,0.271c0.091,0,0.181-0.021,0.274-0.062c0.139-0.096,0.28-0.145,0.424-0.145c0.192,0,0.382,0.088,0.563,0.262c-0.056-0.39-0.386-0.541-0.89-0.65l-0.014-0.006c-0.064-0.039-0.128-0.078-0.191-0.117c-0.062-0.037-0.122-0.074-0.183-0.111c-0.112-0.017-0.229-0.021-0.339-0.027c-0.238-0.008-0.484-0.018-0.729-0.139l-0.122-0.059l0.131-0.035c1.763-0.469,3.083-1.469,4.039-3.057l0.021-0.034l0.907,0.332c0.116,0.009,0.18,0.034,0.273,0.077c0.07,0.031,0.164,0.074,0.32,0.125c-0.005-0.79-0.456-1.217-1.343-1.27l-0.014-0.002l-1.5-0.589l-0.008-0.009c-0.316-0.345-0.49-1.109-0.056-1.574c0.123-0.111,0.214-0.188,0.287-0.245c0.168-0.138,0.252-0.204,0.43-0.505l0.013-0.021l0.024-0.002c0.182-0.017,0.353,0.074,0.517,0.162c0.139,0.072,0.269,0.143,0.395,0.143h0.034l0.011,0.035c0.111,0.334,0.693,0.662,1.181,0.662c0.074,0,0.145-0.008,0.209-0.023l0.025-0.007l0.019,0.018c0.222,0.202,0.557,0.317,0.921,0.317c0.204,0,0.413-0.037,0.617-0.108l0.026-0.009l0.022,0.019c0.405,0.367,0.886,0.44,1.392,0.21l0.03-0.014l0.025,0.023c0.1,0.104,0.307,0.215,0.586,0.215c0.071,0,0.146-0.008,0.219-0.022l0.01-0.003c0.035,0,0.049,0.025,0.083,0.084c0.07,0.114,0.232,0.383,0.529,0.49l0.074,0.027l-0.057,0.058c-0.156,0.155-0.056,0.895,0.121,1.161l0.015,0.023l-0.011,0.023c-0.131,0.314-0.15,0.611-0.058,0.885l0.014,0.037l-0.032,0.021c-0.402,0.268-0.462,0.447-0.292,0.872l0.01,0.023l-0.014,0.023c-0.35,0.579-0.772,0.873-1.254,0.873c-0.189,0.002-0.39-0.045-0.593-0.138l-0.007-0.004c-0.111-0.072-0.225-0.146-0.336-0.219c-0.104-0.068-0.21-0.138-0.315-0.206l-0.008-0.007c-0.119-0.119-0.237-0.238-0.355-0.357c-0.112-0.113-0.227-0.227-0.339-0.342c-0.046-0.044-0.114-0.072-0.174-0.072c-0.059,0-0.131,0.026-0.156,0.148l-0.01,0.049l-0.049-0.01c-0.001,0-0.104-0.023-0.238-0.023c-0.251,0-0.555,0.076-0.644,0.422c0.104-0.068,0.224-0.104,0.355-0.104c0.223,0,0.516,0.124,0.516,0.196c0,0.023-0.011,0.035-0.022,0.049c-0.033,0.041-0.062,0.084-0.025,0.156c0.165,0.038,0.909,0.359,1.2,0.489c0.302,0.117,0.374,0.157,0.505,0.229l0,0l0,0l-0.042,0.092c-0.133-0.063-0.297-0.139-0.502-0.229c-0.346-0.137-0.607-0.214-0.714-0.214c-0.013,0-0.021,0.002-0.024,0.002l-0.009,0.002l-0.037-0.002c-0.102-0.011-0.207-0.021-0.304-0.021c-0.222,0-0.354,0.053-0.43,0.176l-0.009,0.012l-0.015,0.006c-0.041,0.02-0.087,0.037-0.133,0.056c-0.296,0.118-0.624,0.247-0.68,0.656c0.182-0.21,0.401-0.241,0.598-0.241c0.096,0,0.196,0.008,0.299,0.018l0.063,0.004l-0.02,0.063c-0.005,0.015-0.009,0.029-0.013,0.043l0,0c0.086,0.037,0.152,0.057,0.203,0.057c0.062,0,0.101-0.025,0.155-0.059c0.073-0.043,0.164-0.098,0.339-0.115c0.037-0.003,0.078-0.005,0.12-0.005c0.317,0,0.727,0.102,0.979,0.189l0.147,0.051l-0.149,0.045c-0.111,0.034-0.234,0.052-0.354,0.068c-0.235,0.034-0.458,0.065-0.583,0.206c-0.02,0.034-0.051,0.052-0.075,0.066c-0.041,0.023-0.058,0.034-0.031,0.121l0.021,0.068L32.105,35.004L32.105,35.004z M13.155,16.194c-0.009,0.026-0.018,0.052-0.026,0.079c-0.017,0.045-0.034,0.092-0.05,0.139l-0.021,0.062c1.17-0.096,2.044-0.243,2.269-0.288c-0.302-0.543-1.104-0.619-1.31-0.629v0.526l-0.301-0.221c-0.002,0.031-0.003,0.063-0.004,0.094c-0.003,0.06-0.006,0.119-0.008,0.179l-0.003,0.09l-0.073-0.051c-0.037-0.026-0.075-0.053-0.113-0.08c-0.019-0.014-0.035-0.027-0.054-0.04L13.39,16.36L13.155,16.194z M36.863,22.025c-0.499,0-0.826-0.217-0.873-0.58c-0.016-0.107,0.027-0.227,0.119-0.338c0.166-0.199,0.459-0.326,0.764-0.33h0.017c0.289,0,0.73,0.106,1.189,0.607l0.021,0.023l-0.011,0.027C37.968,21.8,37.358,22.025,36.863,22.025z M36.89,20.878h-0.016c-0.331,0.006-0.573,0.157-0.69,0.296c-0.073,0.087-0.106,0.179-0.097,0.258c0.058,0.445,0.562,0.494,0.776,0.494c0.503,0,1.006-0.225,1.124-0.494C37.561,20.976,37.154,20.878,36.89,20.878z M14.829,15.012c-0.011,0-0.019,0-0.027,0c-0.297-0.016-0.464-0.205-0.556-0.633l-0.008-0.038l0.032-0.018c0.05-0.028,0.2-0.03,0.263-0.03h0.012c0.146,0,0.289,0.018,0.396,0.043c0.063,0.016,0.129,0.03,0.192,0.045c0.234,0.047,0.376,0.077,0.37,0.175v0.013l-0.007,0.011C15.376,14.788,15.1,15.012,14.829,15.012z M14.353,14.404c0.083,0.346,0.216,0.494,0.454,0.506c0.243,0.012,0.484-0.195,0.59-0.356c-0.046-0.024-0.182-0.054-0.282-0.075c-0.065-0.015-0.134-0.029-0.196-0.045c-0.102-0.024-0.235-0.039-0.373-0.04h-0.012C14.447,14.394,14.387,14.398,14.353,14.404z"/><path d="M32.533,35.426l-0.097-0.014c0.041-0.309-0.32-0.419-0.335-0.423l0.025-0.097C32.286,34.938,32.574,35.107,32.533,35.426z M10.306,35.404l-0.078-0.061c0.073-0.105,0.098-0.191,0.07-0.258c-0.048-0.115-0.242-0.148-0.244-0.148l0.015-0.1c0.01,0,0.251,0.04,0.319,0.209C10.429,35.148,10.401,35.269,10.306,35.404z M26.569,35.283c-0.226-0.303-0.033-0.6,0.1-0.716l0.063,0.077c-0.013,0.01-0.31,0.277-0.086,0.577L26.569,35.283z M37.755,35.252c-0.163-0.302,0.045-0.57,0.176-0.67l0.059,0.081c-0.012,0.011-0.311,0.241-0.148,0.54L37.755,35.252z M21.222,35.24l-0.088-0.041c0.053-0.115,0.058-0.209,0.017-0.279c-0.078-0.133-0.304-0.172-0.384-0.176l0.005-0.102c0.014,0.002,0.343,0.021,0.463,0.225C21.292,34.969,21.289,35.096,21.222,35.24z M16.175,35.181c-0.183-0.226,0.001-0.636,0.009-0.653c0.016-0.033,0.03-0.064,0.064-0.064v0.051l0.037,0.032c-0.032,0.048-0.17,0.402-0.035,0.571L16.175,35.181z M20.669,34.637l-0.063-0.076c0.026-0.023,0.648-0.568,0.964-0.254c0.215,0.217,1.117-0.111,1.445-0.257l0.039,0.094c-0.128,0.055-1.253,0.538-1.553,0.235C21.291,34.171,20.829,34.494,20.669,34.637z M10.08,34.59l-0.063-0.078c0.029-0.023,0.718-0.601,1.108-0.229c0.327,0.115,0.511,0.094,0.513,0.094l0.012,0.101c-0.008,0-0.208,0.024-0.564-0.103c-0.007-0.002-0.015-0.006-0.02-0.012C10.738,34.037,10.086,34.586,10.08,34.59z M9.823,34.504l-0.058-0.079c0.12-0.092,0.179-0.182,0.176-0.267c-0.004-0.117-0.123-0.198-0.125-0.2l0.053-0.083c0.006,0.004,0.164,0.107,0.17,0.278C10.043,34.275,9.971,34.395,9.823,34.504z M31.411,34.318l-0.078-0.061c0.173-0.234-0.086-0.521-0.097-0.534l0.071-0.068C31.421,33.778,31.59,34.076,31.411,34.318z M20.11,34.158l-0.024-0.096c0.102-0.027,0.169-0.078,0.197-0.147c0.056-0.13-0.028-0.296-0.029-0.298l0.086-0.047c0.004,0.008,0.107,0.211,0.035,0.383C20.332,34.054,20.244,34.123,20.11,34.158z M22.469,33.879l-0.044-0.09l1.005-0.543l0.045,0.09L22.469,33.879z M11.083,33.821c-0.019,0-0.034-0.001-0.051-0.001c-0.193,0-0.319-0.048-0.44-0.093c-0.134-0.05-0.26-0.098-0.48-0.085l-0.005-0.101c0.24-0.015,0.382,0.039,0.519,0.09c0.119,0.046,0.231,0.087,0.408,0.087c0.333,0.011,0.663-0.091,1.045-0.209c0.135-0.043,0.273-0.086,0.423-0.127l0.025,0.096c-0.147,0.041-0.286,0.085-0.419,0.127C11.735,33.722,11.411,33.821,11.083,33.821z M25.502,33.365c-0.363,0-0.657-0.32-0.67-0.334l0.072-0.068c0.003,0.002,0.313,0.341,0.661,0.298c0.187-0.024,0.353-0.153,0.495-0.382c-0.121-0.01-0.208-0.084-0.325-0.197c-0.05-0.049-0.107-0.105-0.18-0.164l0.062-0.079c0.075,0.062,0.133,0.119,0.186,0.171c0.271,0.264,0.315,0.307,1.584-0.569c-0.181-0.06-0.776-0.146-1.326-0.206l0,0c-0.01-0.002-0.017-0.004-0.021-0.008c-0.019-0.012-0.025-0.037-0.019-0.057c0.008-0.023,0.028-0.036,0.05-0.034c0.01,0,0.019,0.002,0.029,0.002c0.173,0.003,0.96-0.134,1.192-0.976c-0.422-0.004-0.782-0.061-1.076-0.166c0.011,0.08-0.015,0.17-0.073,0.268c-0.171,0.277-0.607,0.565-0.649,0.565v-0.05l-0.019-0.046c0.043-0.022,0.535-0.337,0.631-0.618c0.021-0.062,0.02-0.115-0.002-0.162h0.003c-0.262-0.115-0.467-0.271-0.611-0.473c-0.273,0.379-1.141,0.527-1.479,0.586c-0.049,0.008-0.098,0.016-0.107,0.02l-0.012-0.039l-0.043-0.043c0.015-0.016,0.025-0.017,0.146-0.037c0.305-0.053,1.219-0.207,1.436-0.578c-0.006-0.01-0.012-0.02-0.018-0.03c-0.163-0.292-0.202-0.633-0.176-0.966c-0.129-0.289-1.806-0.344-1.96-0.329c-0.116,0.166-0.243,0.313-0.383,0.415l-0.058-0.083c0.467-0.341,0.824-1.27,0.918-1.532c-0.576-0.475-1.28-0.577-1.826-0.447c0.119,0.262,0.602,1.426-0.039,2.052l-0.066-0.073c0.601-0.587,0.103-1.748,0.009-1.953c-0.11,0.032-0.212,0.075-0.304,0.127c-0.362,0.203-0.548,0.516-0.509,0.862c0.002,0.022-0.01,0.044-0.031,0.052c-0.021,0.008-0.045,0.002-0.058-0.016c-0.005-0.009-0.01-0.017-0.015-0.023c-0.006-0.004-0.013-0.009-0.017-0.015c-0.008-0.011-0.015-0.023-0.021-0.036c-0.238-0.317-0.504-0.48-0.753-0.557c0.041,0.384,0.167,1.955-0.263,2.455l-0.073-0.068c0.42-0.486,0.274-2.168,0.239-2.412c-0.14-0.031-0.27-0.035-0.384-0.029c-0.153,0.01-0.292,0.043-0.412,0.086c0.009,0.215,0.034,1.243-0.294,1.65c-0.326,0.404,0.084,1.271,0.089,1.28l-0.088,0.045c-0.018-0.039-0.442-0.936-0.076-1.39c0.287-0.355,0.28-1.281,0.272-1.545c-0.171,0.077-0.287,0.174-0.32,0.238c-0.028,0.051-0.058,0.061-0.082,0.059c-0.059,0.088-0.17,0.246-0.275,0.373c-0.008,0.008-0.019,0.016-0.031,0.018c-0.025,0.002-0.049,0.002-0.071,0c-0.051,0.014-0.342,0.105-0.438,0.365c-0.007,0.02-0.026,0.033-0.048,0.033c-0.085-0.006-0.157-0.027-0.217-0.063c-0.184,0.128-0.317,0.186-0.416,0.202c0.04,0.083,0.085,0.243,0.028,0.494c-0.001,0.004-0.003,0.011-0.005,0.015c-0.09,0.167-0.188,0.186-0.256,0.171c-0.15-0.032-0.276-0.281-0.301-0.492c-0.033-0.024-0.088-0.081-0.13-0.188c-0.086,0.226-0.222,0.528-0.38,0.87v0.001c0,0,0,0-0.001,0.001c-0.088,0.188-0.185,0.389-0.284,0.594l0.009,0.015c-0.007,0.005-0.014,0.007-0.02,0.009c-0.186,0.385-0.383,0.784-0.564,1.15c-0.227,0.457-0.422,0.853-0.541,1.107c-0.002,0.006-0.004,0.01-0.008,0.012c-0.193,0.219-0.363,0.291-0.501,0.213c-0.179-0.099-0.223-0.41-0.214-0.45c0.006-0.022,0.025-0.04,0.048-0.04v0.051l0.048,0.006c0,0.041,0.049,0.301,0.18,0.353c0.113,0.046,0.26-0.079,0.362-0.194c0.114-0.244,0.299-0.615,0.512-1.047c-0.255,0.027-0.459-0.207-0.541-0.353l0.085-0.05c0.009,0.016,0.221,0.391,0.513,0.287c0.163-0.33,0.338-0.683,0.505-1.027c-0.241,0-0.604-0.158-0.654-0.182l0.039-0.092c0.189,0.084,0.515,0.195,0.664,0.171c0.089-0.182,0.174-0.36,0.253-0.53c-0.173-0.004-0.519-0.056-0.873-0.35c-0.008-0.007-0.013-0.016-0.016-0.026c-0.106-0.343-0.098-0.638,0.027-0.878c0.136-0.262,0.368-0.379,0.472-0.42c-0.213-0.289-0.238-0.628-0.202-0.918c0.036-0.278,0.132-0.533,0.207-0.7c0.046-0.106,0.083-0.178,0.11-0.226c-0.161,0.002-0.327,0-0.499-0.004c-0.011,0.002-0.023,0.002-0.034-0.004c-0.021-0.014-0.031-0.038-0.024-0.062c0.059-0.177,0.158-0.366,0.291-0.565c-1.163,0.617-2.094,0.1-2.104,0.094l0.048-0.088c0.01,0.006,0.969,0.539,2.145-0.173c-0.066-0.188-0.074-0.688-0.044-1.315c-1.44,0.201-2.206-0.486-2.239-0.516l0.065-0.076c0.008,0.008,0.772,0.692,2.181,0.488c0.025-0.443,0.067-0.943,0.123-1.437c-1.688-0.04-1.884-0.636-1.892-0.662l0.094-0.028c0.001,0.004,0.197,0.555,1.81,0.591c0.016-0.139,0.032-0.274,0.051-0.409c0.003-0.023,0.006-0.049,0.01-0.074l0,0c0.025-0.199,0.063-0.448,0.105-0.725c-0.85,0.091-1.464-0.67-1.49-0.703l0.075-0.064c0.007,0.009,0.622,0.77,1.432,0.663c0.062-0.368,0.138-0.78,0.229-1.192c0-0.004,0-0.006,0-0.008h0.002c0.001-0.006,0.002-0.011,0.003-0.015c-0.938-0.079-1.194-0.512-1.204-0.532l0.084-0.05l-0.042,0.024l0.042-0.024c0.002,0.005,0.249,0.413,1.143,0.482v0.004c0.097-0.424,0.212-0.842,0.344-1.208c-0.545,0.039-0.995-0.461-1.016-0.484l0.072-0.068c0.005,0.006,0.466,0.516,0.983,0.446c0.094-0.247,0.195-0.465,0.307-0.64c-0.002-0.004-0.004-0.006-0.005-0.009l-0.181-0.359l-0.363,0.563c-0.011,0.014-0.026,0.022-0.045,0.022c-0.017-0.002-0.031-0.013-0.039-0.026l-0.232-0.458l-0.677-0.009l0.001-0.1l0.625,0.007l-0.192-0.376c-0.376-0.078-0.739,0.037-1.053,0.165l-0.013,0.008c-0.007,0.005-0.015,0.009-0.023,0.009c-0.054,0.021-0.106,0.043-0.156,0.064c-0.198,0.086-0.372,0.161-0.522,0.18c-0.007,0.002-0.015,0.004-0.023,0.004l-0.017-0.002c-0.006,0-0.012,0-0.018,0l-0.344,0.006c-0.007,0.004-0.015,0.006-0.022,0.006h-0.172c-0.005,0-0.009-0.002-0.013-0.002l-0.768,0.011l-0.002-0.101l0.15-0.002c0.007-0.023,0.029-0.087,0.096-0.26c0.008-0.02,0.027-0.031,0.047-0.031s0.037,0.012,0.044,0.031l0.098,0.256l0.106-0.004l0.102-0.259c0.008-0.019,0.026-0.032,0.048-0.03c0.02,0,0.037,0.014,0.045,0.035l0.081,0.252l0.104-0.002l0.093-0.283c0.007-0.019,0.023-0.031,0.043-0.033s0.037,0.009,0.047,0.025l0.147,0.281l0.071,0.004l0.096-0.334c0.005-0.017,0.02-0.032,0.038-0.036c0.017-0.003,0.034,0.003,0.046,0.018l0.199,0.238l0.023-0.009l0.063-0.344c0.004-0.019,0.019-0.035,0.036-0.039c0.019-0.006,0.037,0,0.049,0.016l0.193,0.227l0.011-0.006l0.096-0.346c0.005-0.019,0.021-0.033,0.038-0.036c0.021-0.003,0.039,0.005,0.049,0.021l0.161,0.241l0.032-0.011l0.078-0.281c0.005-0.021,0.021-0.034,0.04-0.038c0.02-0.002,0.039,0.008,0.049,0.025l0.146,0.244c0.105-0.01,0.213-0.008,0.324,0.009l-0.328-0.647l0.088-0.045l0.361,0.715c0.001,0,0.002,0,0.003,0v0.004l0.454,0.898l0.366-0.564c0.01-0.014,0.025-0.023,0.043-0.021c0.018,0,0.033,0.012,0.041,0.025l0.176,0.355l0.306-0.555c0.007-0.012,0.019-0.021,0.031-0.024c0.014-0.003,0.027-0.001,0.038,0.007l0.492,0.323l-0.19-0.64c-0.004-0.016-0.002-0.031,0.007-0.043c0.008-0.014,0.021-0.021,0.036-0.022l0.436-0.03c-0.058-0.104-0.208-0.304-0.524-0.355c-0.019-0.004-0.034-0.018-0.039-0.037s0.002-0.039,0.017-0.052c0.097-0.079,0.381-0.275,0.497-0.354c-0.081-0.076-0.276-0.232-0.542-0.24c-0.019,0-0.035-0.013-0.042-0.032c-0.007-0.017-0.004-0.038,0.009-0.054c0.089-0.1,0.2-0.307,0.246-0.402c-0.011-0.002-0.023-0.004-0.04-0.008c-0.162-0.028-0.271-0.064-0.282-0.068c-0.024-0.008-0.039-0.035-0.031-0.06c0.007-0.026,0.032-0.043,0.057-0.037c0.073,0.019,0.171,0.041,0.248,0.06c0.299,0.055,0.814,0.09,1.24-0.166l0.049,0.088c-0.383,0.229-0.823,0.238-1.139,0.204c-0.036,0.101-0.145,0.276-0.218,0.384c0.339,0.049,0.55,0.295,0.56,0.307c0.009,0.011,0.013,0.025,0.011,0.039c-0.002,0.015-0.009,0.027-0.021,0.036c-0.004,0.002-0.29,0.195-0.455,0.319c0.395,0.111,0.517,0.441,0.521,0.456c0.006,0.015,0.004,0.03-0.005,0.045c-0.008,0.013-0.022,0.021-0.037,0.022l-0.446,0.033l0.212,0.711c0.006,0.021-0.001,0.043-0.018,0.055c-0.017,0.014-0.039,0.014-0.056,0.002l-0.562-0.369l-0.281,0.511c0.011,0.011,0.017,0.027,0.015,0.044c-0.161,1.194-0.008,2.422,0.237,3.407h0.001c0,0,0,0,0,0.003c0.138,0.554,0.307,1.033,0.466,1.383h0.009c-0.002,0.004-0.002,0.008-0.003,0.013c0.112,0.241,0.218,0.421,0.305,0.52c0.058,0.066,0.08,0.064,0.081,0.064v0.006c0.438-0.269,0.84-0.449,1.131-0.488l0.012,0.101c-0.96,0.126-3.154,1.848-3.777,3.064c0.843-0.818,3.364-2.361,4.64-2.441c0.019-0.002,0.035,0.006,0.045,0.022c0.009,0.015,0.01,0.034,0.002,0.049c-0.829,1.653-1.156,2.438-1.302,2.987c0.515-0.97,1.798-2.614,2.411-2.869c0.05-0.041,0.096-0.039,0.126-0.03c0.022,0.008,0.036,0.028,0.035,0.053c-0.002,0.022-0.019,0.043-0.043,0.045c-0.02,0.004-0.041,0.011-0.065,0.019c-0.265,0.261-0.445,2.181-0.383,3.611c0.1-0.493,0.283-1.103,0.423-1.537c0.261-0.81,0.906-2.608,1.117-2.666c0.018-0.004,0.035,0,0.048,0.013c0.127,0.13,1.176,3.298,1.347,4.172c0.144-0.812-0.449-4.289-0.737-4.706c-0.013-0.018-0.012-0.045,0.003-0.061c0.009-0.013,0.03-0.031,0.071-0.029c0.392,0.029,3.021,2.955,3.68,3.824c-0.111-0.422-0.502-1.182-1.026-1.973c-0.7-1.057-1.453-1.895-2.013-2.24c-0.013-0.008-0.021-0.022-0.022-0.037c-0.002-0.016,0.003-0.03,0.014-0.041c0.034-0.036,0.101-0.105,1.062,0.236c0.559,0.199,1.292,0.492,2.068,0.826c1.174,0.506,2.622,1.186,3.233,1.602c-0.296-0.322-1.081-0.945-2.319-1.771c-1.231-0.818-2.752-1.713-3.372-1.866c-0.021-0.006-0.038-0.026-0.037-0.049c0-0.023,0.017-0.043,0.038-0.049c1.58-0.353,6.647,0.383,8.712,0.837c-1.17-0.831-6.055-1.686-8.528-1.6c-0.019,0-0.037-0.011-0.046-0.03c-0.009-0.017-0.006-0.038,0.007-0.053c0.364-0.443,5.931-1.862,10.642-2.998c-1.919,0.24-8.234,1.347-10.01,1.899c-0.019,0.006-0.039-0.002-0.052-0.019s-0.014-0.038-0.004-0.058c0.174-0.303,10.731-5.393,11.935-5.973l0.042,0.092c-2.944,1.418-10.197,4.939-11.644,5.771c2.382-0.645,10.101-1.984,10.33-1.844c0.019,0.01,0.028,0.029,0.025,0.049c-0.004,0.021-0.019,0.038-0.038,0.042c-0.041,0.013-0.154,0.039-0.324,0.079c-8.005,1.927-10.195,2.658-10.705,2.936c1.227-0.021,3.104,0.176,4.849,0.508c0.94,0.179,3.188,0.658,3.744,1.255c0.015,0.017,0.018,0.041,0.007,0.06c-0.01,0.02-0.032,0.03-0.054,0.025c-1.841-0.43-6.846-1.182-8.667-0.916c0.752,0.271,2.157,1.121,3.202,1.816c0.333,0.221,1.716,1.154,2.27,1.717c-0.287-0.784,0.252-1.271,0.258-1.276l0.063,0.077c-0.027,0.023-0.658,0.598-0.038,1.535c0.011,0.016,0.012,0.036,0.003,0.053c-0.008,0.016-0.024,0.027-0.044,0.027c0,0,0,0-0.001,0c-0.251-0.005-0.492,0.006-0.72,0.031c0.008,0.133,0.052,0.496,0.283,0.884c0.388,0.644,1.123,1.063,2.129,1.215c0.002,0,0.005,0,0.006,0c0.515,0.146,0.983,0.253,1.396,0.347c1.855,0.42,2.787,0.629,2.922,3.303c0,0.004,0,0.006,0,0.008c-0.088,1.033-0.202,1.979-0.625,2.201c-0.159,0.084-0.35,0.059-0.567-0.074l0.051-0.088c0.188,0.116,0.344,0.141,0.473,0.072c0.214-0.111,0.34-0.465,0.424-0.891c-0.063,0.059-0.135,0.093-0.212,0.105c-0.226,0.036-0.422-0.131-0.43-0.137l0.062-0.078c0.002,0.002,0.171,0.145,0.352,0.115c0.103-0.018,0.19-0.086,0.264-0.205c0.053-0.339,0.085-0.707,0.112-1.026c0-0.011-0.001-0.022-0.001-0.034c-0.269,0.369-0.706,0.293-0.712,0.292l0.018-0.099c0.02,0.002,0.465,0.079,0.684-0.367c-0.025-0.354-0.065-0.662-0.121-0.928c-0.227,0.287-0.703,0.17-0.726,0.164l0.022-0.098c0.006,0.002,0.516,0.127,0.673-0.205c-0.136-0.552-0.347-0.916-0.646-1.177c-0.107,0.214-0.425,0.827-0.568,0.906l-0.047-0.09c0.098-0.053,0.376-0.556,0.537-0.88c-0.265-0.204-0.589-0.339-0.981-0.453c-0.005,0.246-0.05,0.902-0.365,1.207l-0.067-0.074c0.298-0.285,0.332-0.949,0.336-1.16c-0.264-0.073-0.558-0.14-0.881-0.213c-0.066-0.014-0.135-0.031-0.204-0.047c-0.008,0.139-0.072,0.799-0.625,1.279l-0.063-0.077c0.551-0.479,0.59-1.165,0.592-1.224c-0.335-0.078-0.701-0.166-1.096-0.278c-0.09-0.013-0.178-0.028-0.264-0.046c0.113,0.43-0.747,1.383-0.757,1.393l-0.069-0.07l0.035,0.036l-0.035-0.036c0.147-0.159,0.904-1.086,0.71-1.344l0.004-0.003c-0.388-0.089-0.704-0.219-0.963-0.37c-0.058,0.26-0.299,1.014-1.155,1.146l-0.014-0.098c0.849-0.132,1.045-0.901,1.081-1.101c-0.921-0.583-1.049-1.445-1.065-1.693c-1.554,0.19-2.474,0.984-2.569,1.598l0.004-0.002c0.004,0.006,0.385,0.7,0.825,0.662c0.656-0.199,0.906,0.21,0.916,0.229l-0.084,0.051c-0.008-0.014-0.224-0.361-0.809-0.182c-0.003,0-0.006,0-0.009,0c-0.234,0.025-0.447-0.119-0.608-0.283c-0.506,0.477-1.063,0.528-1.461,0.477c-0.021,0.038-0.833,1.507-0.322,2.426c0.278,0.5,0.9,0.753,1.848,0.753v0.007c0.002,0,0.004,0,0.006,0c0.44,0.043,0.687,0.162,0.755,0.366c0.112,0.337-0.327,0.763-0.536,0.968c-0.029,0.027-0.053,0.049-0.067,0.065c-0.007,0.007-0.016,0.013-0.025,0.015l0.006,0.009c-0.723,0.499-1.079,0.726-1.307,0.776c-0.167,0.298-0.372,0.465-0.606,0.494C25.552,33.363,25.527,33.365,25.502,33.365z M26.437,31.777c0.411,0.05,0.874,0.119,1.029,0.192c0.013-0.011,0.027-0.025,0.043-0.042c0.18-0.175,0.603-0.587,0.511-0.859c-0.052-0.155-0.264-0.256-0.63-0.296c-0.152,0.579-0.535,0.842-0.834,0.963C26.516,31.75,26.477,31.766,26.437,31.777z M15.287,29.188c0.362,0.295,0.719,0.323,0.848,0.319c0.18-0.384,0.324-0.716,0.397-0.934l0.007,0.002c-0.006-0.038-0.01-0.083-0.01-0.13c-0.359-0.098-0.604-0.252-0.765-0.43c-0.051,0.017-0.313,0.119-0.453,0.386C15.202,28.614,15.194,28.877,15.287,29.188z M16.771,28.109c-0.022,0-0.043,0.004-0.062,0.013c-0.074,0.04-0.085,0.17-0.081,0.272c-0.013,0.359,0.141,0.449,0.148,0.452c0.016,0.008,0.025,0.024,0.026,0.04c0.016,0.195,0.127,0.406,0.228,0.429c0.061,0.013,0.111-0.056,0.146-0.116c0.066-0.307-0.033-0.447-0.048-0.465c-0.033-0.008-0.06-0.021-0.081-0.037c-0.078-0.062-0.095-0.186-0.042-0.328c0.017-0.045,0.039-0.09,0.067-0.132C17.002,28.186,16.871,28.109,16.771,28.109z M23.349,28.564c0.336,0.001,1.564,0.031,1.907,0.297c0.083-0.646,0.385-1.242,0.467-1.395c-0.213-0.037-0.367-0.1-0.419-0.123c-0.114,0.219-0.268,0.395-0.41,0.523c-0.484,0.445-1.125,0.643-1.476,0.584C23.396,28.488,23.373,28.526,23.349,28.564z M17.451,28.099c-0.162,0.009-0.299,0.157-0.354,0.307c-0.035,0.097-0.031,0.181,0.011,0.213c0.028,0.022,0.14,0.071,0.468-0.151c-0.063-0.068-0.104-0.158-0.119-0.272C17.453,28.164,17.451,28.131,17.451,28.099z M17.673,28.42c0.046,0.037,0.104,0.06,0.174,0.068c0.083-0.186,0.245-0.29,0.362-0.343c-0.104-0.067-0.179-0.194-0.207-0.364c-0.002-0.012-0.004-0.023-0.005-0.037c-0.026,0.016-0.058,0.028-0.095,0.032c-0.078,0.009-0.156-0.026-0.233-0.101c-0.001-0.002-0.002-0.002-0.003-0.004c-0.052,0.052-0.147,0.307-0.107,0.533c0.016,0.087,0.049,0.154,0.1,0.202c0.002,0,0.003-0.002,0.004-0.002L17.673,28.42z M23.472,28.355c0.329,0.035,0.918-0.16,1.358-0.563c0.257-0.236,0.554-0.627,0.548-1.167c-0.542,0.101-0.747,0.303-0.937,0.49c-0.148,0.146-0.301,0.296-0.591,0.388C23.796,27.656,23.663,28.009,23.472,28.355z M15.929,26.09c-0.096,0.142-0.49,0.902-0.294,1.508c0.115,0.355,0.417,0.605,0.895,0.743c0.003-0.159,0.049-0.263,0.136-0.309c0.159-0.085,0.393,0.069,0.471,0.128c0.084-0.092,0.197-0.16,0.32-0.164c0.021-0.199,0.1-0.396,0.189-0.428c0.028-0.01,0.067-0.004,0.096,0.037c0.052,0.051,0.104,0.074,0.15,0.071c0.061-0.005,0.099-0.056,0.1-0.058l0.002,0.002c0.01-0.188,0.092-0.365,0.26-0.405c0.007-0.002,0.015-0.002,0.021,0c0.056,0.013,0.217-0.048,0.333-0.102c-0.004-0.045,0.001-0.099,0.015-0.161c0-0.16,0.003-0.354,0.01-0.583c-0.207,0.108-0.828,0.458-1.279,1.011c-0.013,0.017-0.035,0.022-0.055,0.015c-0.02-0.009-0.031-0.026-0.031-0.048c0.009-0.336,0.005-0.835,0.002-1.163c-0.001-0.087-0.001-0.161-0.002-0.22C16.831,26.051,16.398,26.083,15.929,26.09z M18.267,27.316c-0.145,0.043-0.2,0.26-0.169,0.447c0.027,0.162,0.124,0.341,0.305,0.333c0.109-0.132,0.221-0.296,0.272-0.371c-0.022-0.073-0.043-0.218-0.05-0.51C18.531,27.259,18.36,27.328,18.267,27.316z M19.74,27.277c0.326,0,0.744,0.105,1.115,0.523c0-0.035,0.002-0.073,0.005-0.113c-0.11-1.269,0.018-3.336,0.29-3.98c-0.623,0.407-1.798,1.902-2.266,2.84c-0.057,0.117-0.098,0.211-0.124,0.288c-0.017,0.108-0.027,0.213-0.038,0.323c0.004,0.232,0.015,0.42,0.033,0.508c0.109-0.153,0.454-0.358,0.889-0.385C19.676,27.279,19.708,27.277,19.74,27.277z M20.956,27.677c0.001,0.005,0.001,0.009,0.002,0.015c0.072-0.245,0.255-0.459,0.53-0.611c0.561-0.314,1.509-0.354,2.3,0.276c-0.041-0.591-1.134-3.79-1.322-4.204c-0.239,0.291-1.157,2.725-1.44,4.088C20.986,27.43,20.965,27.572,20.956,27.677z M25.347,27.253c0.146,0.065,1.076,0.429,1.873-0.322c-0.131-0.147-0.219-0.298-0.243-0.341c-0.676-0.049-1.153-0.034-1.502,0.02C25.479,26.854,25.429,27.067,25.347,27.253z M23.253,22.541c0.321,0.709,0.866,3.979,0.699,4.727c-0.01,0.045-0.021,0.079-0.036,0.105c0.208-0.084,0.33-0.204,0.458-0.33c0.326-0.322,0.696-0.686,2.562-0.557c-0.008-0.004-0.014-0.01-0.018-0.018C26.523,25.82,23.771,22.824,23.253,22.541z M17.315,25.852c0.012,0,0.022,0.004,0.031,0.012c0.011,0.01,0.018,0.023,0.018,0.038c0,0.065,0.001,0.163,0.002,0.282c0.002,0.287,0.006,0.702,0.001,1.028c0.556-0.622,1.289-0.966,1.297-0.97c0.016-0.008,0.033-0.006,0.047,0.004s0.022,0.026,0.022,0.043c-0.003,0.064-0.005,0.128-0.007,0.193c0.133-0.557,0.441-1.324,1.295-3.029c-1.33,0.147-3.972,1.809-4.614,2.534c0.698,0.013,1.294-0.009,1.898-0.135C17.31,25.853,17.313,25.852,17.315,25.852z M24.02,22.027c1.214,0.859,2.852,3.454,2.98,4.316c0.25-0.685,1.348-1.535,3.267-1.553c-0.484-0.385-2.044-1.123-3.29-1.662C25.467,22.478,24.383,22.092,24.02,22.027z M15.672,24.606c0,0.292,0.016,0.505,0.043,0.611c0.098-0.13,0.207-0.26,0.325-0.393c-0.111-0.069-0.148-0.249-0.16-0.354C15.783,24.537,15.71,24.583,15.672,24.606z M15.973,24.408c0.006,0.096,0.039,0.307,0.138,0.342c0.085-0.092,0.174-0.184,0.265-0.275c-0.102-0.144-0.143-0.207-0.161-0.237C16.127,24.302,16.045,24.357,15.973,24.408z M15.715,23.582c-0.023,0.343-0.038,0.648-0.042,0.905c0.114-0.073,0.341-0.225,0.602-0.421c-0.142-0.104-0.26-0.446-0.303-0.59c-0.092,0.045-0.173,0.075-0.238,0.098C15.726,23.578,15.719,23.58,15.715,23.582z M16.296,24.183c0.008,0.017,0.079,0.119,0.15,0.224c0.142-0.137,0.29-0.271,0.441-0.403l-0.124-0.2c-0.164,0.143-0.331,0.272-0.483,0.387L16.296,24.183z M16.061,23.434c0.066,0.221,0.192,0.521,0.286,0.559c0.009,0.004,0.015,0.005,0.023,0c0.112-0.086,0.227-0.179,0.342-0.277c-0.067-0.202-0.154-0.459-0.194-0.568C16.357,23.27,16.2,23.364,16.061,23.434z M16.839,23.737l0.124,0.202c0.157-0.132,0.317-0.26,0.478-0.38l-0.183-0.234C17.131,23.467,16.987,23.606,16.839,23.737z M16.6,23.078c0.035,0.101,0.129,0.379,0.191,0.566c0.16-0.142,0.314-0.293,0.445-0.445l-0.249-0.512C16.863,22.84,16.731,22.971,16.6,23.078z M17.324,23.248L17.52,23.5c0.164-0.119,0.327-0.23,0.487-0.332c-0.02-0.016-0.041-0.035-0.063-0.06c-0.077-0.089-0.169-0.237-0.266-0.438C17.614,22.859,17.487,23.057,17.324,23.248z M15.751,23.11c-0.011,0.124-0.021,0.245-0.028,0.362c0.063-0.023,0.134-0.051,0.208-0.086L15.751,23.11z M15.766,22.951l0.254,0.393c0.139-0.068,0.289-0.158,0.438-0.273c-0.1-0.115-0.185-0.407-0.221-0.55c-0.112,0.092-0.217,0.165-0.299,0.216c-0.075,0.049-0.126,0.073-0.159,0.086C15.775,22.865,15.771,22.908,15.766,22.951z M17.056,22.602l0.25,0.516c0.158-0.2,0.274-0.401,0.307-0.586c-0.071-0.158-0.143-0.339-0.213-0.539C17.303,22.227,17.185,22.427,17.056,22.602z M16.321,22.453c0.065,0.261,0.158,0.502,0.212,0.558c0.166-0.138,0.331-0.308,0.479-0.515c-0.076-0.037-0.181-0.155-0.338-0.372c0-0.001,0-0.001-0.001-0.003c-0.115,0.122-0.239,0.234-0.354,0.334L16.321,22.453z M15.882,21.926c0,0.004-0.001,0.008-0.001,0.012c-0.035,0.263-0.065,0.521-0.09,0.771c0.094-0.052,0.278-0.182,0.483-0.356c-0.067-0.113-0.122-0.396-0.152-0.579C16.037,21.84,15.956,21.893,15.882,21.926z M17.063,22.409c-0.002,0-0.006,0-0.01,0.003l0.008,0.012c0.11-0.166,0.209-0.357,0.291-0.574c-0.054-0.16-0.105-0.331-0.154-0.51c-0.06,0.186-0.181,0.377-0.327,0.559v0.027c-0.005,0-0.011-0.002-0.018-0.007c-0.035,0.044-0.072,0.086-0.11,0.13c0.003,0.004,0.007,0.009,0.011,0.014C16.984,22.386,17.053,22.407,17.063,22.409C17.063,22.409,17.063,22.409,17.063,22.409z M16.209,21.698c0.037,0.239,0.097,0.505,0.14,0.59c0.149-0.132,0.305-0.288,0.438-0.448c-0.085-0.125-0.198-0.359-0.254-0.48C16.428,21.484,16.317,21.602,16.209,21.698z M15.972,21.297c-0.028,0.19-0.054,0.361-0.074,0.51c0.094-0.051,0.199-0.135,0.308-0.238C16.118,21.467,16.028,21.361,15.972,21.297z M16.6,21.279c0.031,0.066,0.172,0.34,0.251,0.479c0.163-0.213,0.279-0.434,0.292-0.633c-0.041-0.166-0.08-0.339-0.114-0.516C16.937,20.813,16.777,21.055,16.6,21.279z M15.99,21.174c0.038,0.036,0.111,0.119,0.285,0.326c0.122-0.126,0.243-0.27,0.354-0.418c-0.084-0.145-0.206-0.354-0.242-0.413c-0.179,0.167-0.321,0.276-0.363,0.309C16.012,21.045,16.001,21.109,15.99,21.174z M16.458,20.599c0.018,0.026,0.067,0.11,0.231,0.394c0.144-0.204,0.257-0.409,0.305-0.564c-0.021-0.121-0.042-0.247-0.061-0.373C16.777,20.266,16.608,20.449,16.458,20.599z M16.215,19.966c-0.063,0.296-0.119,0.59-0.167,0.866c0.113-0.091,0.313-0.262,0.523-0.492c-0.054-0.088-0.072-0.27-0.076-0.442c-0.096,0.063-0.187,0.1-0.255,0.079C16.232,19.975,16.224,19.971,16.215,19.966z M16.592,19.826c0.001,0.184,0.021,0.363,0.049,0.436c0.093-0.104,0.185-0.22,0.271-0.346l0.004,0.004c-0.016-0.125-0.028-0.248-0.041-0.377C16.802,19.633,16.697,19.738,16.592,19.826z M16.245,19.832c0.002,0.022,0.009,0.043,0.022,0.047c0.041,0.012,0.122-0.026,0.216-0.096l-0.168-0.25C16.291,19.633,16.267,19.732,16.245,19.832z M16.347,19.403l0.214,0.319c0.106-0.09,0.22-0.209,0.304-0.324c-0.036-0.481-0.036-0.98,0.016-1.477C16.669,18.3,16.492,18.834,16.347,19.403z M12.901,17.254c-0.015,0.042-0.028,0.078-0.038,0.102h0.075L12.901,17.254z M13.294,17.256l-0.039,0.094h0.068L13.294,17.256z M13.681,17.204l-0.047,0.142l0.12-0.002L13.681,17.204z M14.096,17.123l-0.06,0.203c0.057-0.012,0.118-0.031,0.183-0.056L14.096,17.123z M14.475,16.993l-0.034,0.188c0.011-0.006,0.021-0.011,0.031-0.015c0.035-0.016,0.071-0.031,0.108-0.047L14.475,16.993z M14.848,16.854l-0.051,0.177c0.046-0.016,0.09-0.031,0.137-0.047L14.848,16.854z M15.203,16.795l-0.035,0.127c0.033-0.006,0.066-0.012,0.1-0.019L15.203,16.795z M10.113,33.325c-0.033,0-0.069-0.002-0.105-0.007l0.01-0.1c0.167,0.018,0.282-0.009,0.333-0.077c0.069-0.093,0.015-0.239,0.015-0.241l0.092-0.036c0.003,0.009,0.074,0.201-0.028,0.337C10.367,33.283,10.263,33.325,10.113,33.325z M31.701,33.014l-0.056-0.083c0.146-0.104,0.221-0.204,0.214-0.29c-0.008-0.102-0.128-0.164-0.13-0.164l0.042-0.092c0.008,0.004,0.173,0.088,0.185,0.248C31.966,32.758,31.88,32.886,31.701,33.014z M20.906,32.783l-0.013-0.1c0.093-0.014,0.153-0.049,0.184-0.105c0.061-0.12-0.027-0.307-0.028-0.309l0.088-0.046c0.005,0.011,0.112,0.236,0.027,0.402C21.118,32.713,21.032,32.767,20.906,32.783z M14.618,29.347c-0.363-0.13-1.231-0.886-1.109-1.849c-2.339-0.196-3.502-1.603-3.687-2.451c-0.072-0.334-0.004-0.59,0.188-0.701l0.048,0.088c-0.152,0.088-0.204,0.305-0.141,0.592c0.049,0.232,0.178,0.508,0.386,0.789c0.198-0.149,0.355-0.492,0.357-0.496l0.089,0.043c-0.008,0.018-0.169,0.365-0.386,0.529c0.227,0.286,0.535,0.57,0.933,0.816c0.078-0.265,0.304-0.716,0.313-0.736l0.087,0.046c-0.003,0.005-0.246,0.494-0.314,0.741c0.338,0.197,0.734,0.364,1.192,0.484c0.135-0.328-0.059-0.971-0.061-0.977l0.093-0.029c0.009,0.027,0.201,0.662,0.063,1.029c0.25,0.06,0.52,0.104,0.807,0.13c-0.544-0.831-0.47-1.255-0.467-1.272l0.097,0.02c-0.002,0.004-0.068,0.432,0.499,1.27c0.008,0.01,0.011,0.023,0.008,0.036c-0.163,0.937,0.686,1.68,1.035,1.804L14.618,29.347z M34.382,26.375c-0.222-0.137-0.507-0.455-0.837-0.826c-0.563-0.63-1.262-1.414-1.777-1.352l-0.012-0.1c0.566-0.069,1.254,0.702,1.861,1.384c0.311,0.349,0.605,0.679,0.814,0.806L34.382,26.375z M7.414,25.993l-0.097-0.021c0.063-0.299-0.324-0.422-0.341-0.428l0.028-0.096C7.175,25.501,7.478,25.682,7.414,25.993z M38.156,22.758l-0.09-0.039c0.297-0.733,0.078-1.102-0.008-1.208c-0.19,0.349-0.855,0.558-1.353,0.507c-0.413-0.043-0.674-0.252-0.715-0.573c-0.027-0.196,0.139-0.425,0.404-0.554c0.41-0.203,1.067-0.178,1.685,0.494c0.004,0.006,0.008,0.013,0.01,0.019l0.002-0.002C38.111,21.418,38.537,21.817,38.156,22.758z M36.886,20.88c-0.169,0-0.321,0.038-0.448,0.101c-0.224,0.109-0.371,0.299-0.351,0.451c0.049,0.371,0.415,0.464,0.629,0.485c0.525,0.054,1.138-0.183,1.271-0.485C37.606,21.026,37.216,20.88,36.886,20.88z M21.895,22.135l-0.002-0.102l0.001,0.051l-0.001-0.051c0.008,0,0.828-0.053,1.647-2.345c0.57-2.218,3.771-4.562,5.891-6.113c0.883-0.647,1.646-1.205,1.685-1.401l0.097,0.021c-0.045,0.223-0.623,0.654-1.726,1.461c-1.601,1.174-3.826,2.803-5.047,4.477c0.96-0.512,3.002-1.329,4.979-2.122c0.897-0.358,1.745-0.698,2.499-1.013l0.037,0.094c-0.756,0.314-1.604,0.653-2.5,1.015c-2.094,0.838-4.258,1.704-5.129,2.203l-0.005-0.01c-0.326,0.475-0.567,0.95-0.688,1.419C22.783,22.094,21.93,22.135,21.895,22.135z M9.387,22.13c-0.54-0.292-0.126-1.456-0.109-1.507l0.093,0.035c-0.004,0.011-0.401,1.133,0.061,1.383L9.387,22.13z M39.675,20.922c-0.248-0.479-0.607-0.729-0.78-0.85c-0.034-0.023-0.061-0.043-0.079-0.057l0.059-0.08c0.02,0.014,0.044,0.031,0.074,0.054c0.18,0.124,0.554,0.386,0.813,0.884L39.675,20.922z M10.167,20.662c-0.019,0-0.038-0.002-0.057-0.006c-0.196-0.043-0.318-0.307-0.323-0.318l0.089-0.042c0.001,0.002,0.105,0.229,0.255,0.262c0.063,0.015,0.124-0.008,0.189-0.067l0.063,0.076C10.313,20.631,10.241,20.662,10.167,20.662z M7.273,20.189c-0.078,0-0.13-0.023-0.135-0.027l0.043-0.092c0.009,0.006,0.244,0.11,0.481-0.267l0.081,0.056C7.572,20.133,7.391,20.189,7.273,20.189z M8.819,19.484c-0.028,0-0.054-0.007-0.075-0.02c-0.057-0.029-0.073-0.09-0.073-0.119h0.098H8.72h0.049c0,0.002,0.002,0.021,0.021,0.029c0.023,0.013,0.128,0.032,0.458-0.219l0.059,0.08C9.088,19.401,8.928,19.484,8.819,19.484z M40.419,18.803l-0.084-0.051c0.162-0.282,0.279-1.71,0.28-1.725l0.098,0.009C40.708,17.096,40.594,18.502,40.419,18.803z M39.464,18.762l-0.091-0.034c0.158-0.44,0.573-1.59,0.586-1.63l0.044,0.015h0.053C40.056,17.125,40.056,17.129,39.464,18.762z M9.331,17.264L8.98,16.68c-0.007-0.013-0.009-0.029-0.004-0.043c0.005-0.015,0.016-0.025,0.029-0.031l0.314-0.111l0.031,0.095l-0.256,0.093l0.318,0.531L9.331,17.264z M12.683,16.174c-0.102,0-0.156-0.021-0.162-0.022l0.035-0.095l-0.018,0.048l0.017-0.048c0.006,0.002,0.467,0.16,1.408-0.606l0.062,0.077C13.348,16.081,12.903,16.174,12.683,16.174z M12.158,15.567l-0.036-0.094c0.186-0.078,0.355-0.192,0.355-0.239c0-0.002,0-0.004,0.001-0.006c0.024-0.178,0.096-0.435,0.099-0.444l0.094,0.028c-0.001,0.002-0.071,0.257-0.095,0.426C12.57,15.385,12.256,15.525,12.158,15.567z M12.99,15.426l-0.057-0.084c0.003-0.002,0.243-0.175,0.233-0.392c-0.011-0.229-0.337-0.653-0.34-0.657l0.077-0.062c0.014,0.018,0.348,0.452,0.359,0.714C13.278,15.219,13.001,15.418,12.99,15.426z M18.302,14.711c-0.051-0.002-0.497-0.023-0.635-0.201c-0.037-0.046-0.051-0.101-0.041-0.156c0.051-0.324,0.668-0.548,0.741-0.573c0.123-0.083,0.349-0.237,0.556-0.39c-0.266-0.037-0.42,0.115-0.429,0.123l-0.067-0.072c0.009-0.01,0.232-0.232,0.603-0.131c0.159-0.123,0.291-0.233,0.334-0.298l0.081,0.058c-0.138,0.205-0.993,0.773-1.03,0.799c-0.004,0.002-0.008,0.004-0.012,0.005c-0.177,0.06-0.644,0.265-0.68,0.496c-0.005,0.028,0.001,0.054,0.021,0.077c0.094,0.121,0.438,0.157,0.562,0.164L18.302,14.711z M15.791,14.649c-0.005,0-0.009-0.002-0.013-0.002c-0.005-0.002-0.531-0.144-0.919-0.226c-0.382-0.083-0.9,0.063-0.906,0.063l-0.025-0.097c0.022-0.006,0.547-0.152,0.951-0.066c0.361,0.076,0.841,0.205,0.915,0.225c0.078-0.012,0.622-0.096,0.802-0.226l0.057,0.081c-0.214,0.155-0.83,0.243-0.855,0.245C15.795,14.649,15.793,14.649,15.791,14.649z M17.059,14.085l-0.071-0.067c0.161-0.18,0.219-0.47,0.218-0.506c0,0,0,0.015,0.013,0.027l0.069-0.072C17.34,13.522,17.227,13.9,17.059,14.085z"/><path fill="#263238" d="M14.532,14.348l0.653,0.125C15.186,14.473,14.725,15.107,14.532,14.348z"/><path fill="#263238" d="M14.822,14.771c-0.154,0-0.269-0.139-0.338-0.412c-0.004-0.016,0-0.033,0.012-0.045c0.012-0.014,0.029-0.02,0.045-0.018l0.653,0.127c0.016,0.002,0.03,0.014,0.036,0.029c0.006,0.018,0.004,0.035-0.006,0.049C15.217,14.514,15.027,14.771,14.822,14.771z M14.602,14.412c0.055,0.172,0.129,0.259,0.221,0.259c0.098,0,0.204-0.092,0.271-0.165L14.602,14.412z"/></g></svg>