<?xml version="1.0" encoding="iso-8859-1"?>
<!-- Generator: Adobe Illustrator 25.2.3, SVG Export Plug-In . SVG Version: 6.00 Build 0)  -->
<svg version="1.1" baseProfile="basic" id="Layer_1"
	 xmlns="http://www.w3.org/2000/svg" xmlns:xlink="http://www.w3.org/1999/xlink" x="0px" y="0px" viewBox="0 0 48 48"
	 xml:space="preserve">
<linearGradient id="SVGID_1_" gradientUnits="userSpaceOnUse" x1="11.3184" y1="-0.889" x2="32.5224" y2="40.7261">
	<stop  offset="0.008" style="stop-color:#F44F5A"/>
	<stop  offset="0.447" style="stop-color:#EE3D4A"/>
	<stop  offset="1" style="stop-color:#E52030"/>
</linearGradient>
<rect x="2" y="9" style="fill:url(#SVGID_1_);" width="44" height="30"/>
<linearGradient id="SVGID_2_" gradientUnits="userSpaceOnUse" x1="17.0927" y1="9.4623" x2="31.9073" y2="38.5377">
	<stop  offset="0" style="stop-color:#0D61A9"/>
	<stop  offset="1" style="stop-color:#16528C"/>
</linearGradient>
<rect x="18" y="9" style="fill:url(#SVGID_2_);" width="13" height="30"/>
<linearGradient id="SVGID_3_" gradientUnits="userSpaceOnUse" x1="3.4359" y1="15.3393" x2="13.7722" y2="35.6256">
	<stop  offset="0" style="stop-color:#FFD000"/>
	<stop  offset="1" style="stop-color:#FFC107"/>
</linearGradient>
<path style="fill:url(#SVGID_3_);" d="M10,21c-1.341,0-2.494-0.898-2.999-2.053C7,18.965,7,18.982,7,19c0,1.657,1.343,3,3,3
	s3-1.343,3-3c0-0.018,0-0.035-0.001-0.053C12.494,20.102,11.341,21,10,21z M10,16c1.105,0,2,0.895,2,2s-0.895,2-2,2s-2-0.895-2-2
	S8.895,16,10,16z M9,14.063C9,14.58,9.448,15,10,15s1-0.42,1-0.938c0-0.375-0.25-0.422-0.25-0.563s0.15-0.328-0.15-0.563
	c0.15,0.234-0.1,0.281-0.1,0.516s0.1,0.234,0.1,0.422c0,0.104-0.09,0.188-0.2,0.188s-0.2-0.084-0.2-0.188
	c0-0.188,0.2-0.375,0.2-0.656s-0.05-0.375-0.2-0.609C10.05,12.375,9.8,12.188,10,12c-0.3,0.094-0.15,0.469-0.15,0.703
	s-0.2,0.375-0.2,0.656s0.15,0.328,0.15,0.516c0,0.104-0.09,0.188-0.2,0.188s-0.2-0.084-0.2-0.188c0-0.188,0.1-0.188,0.1-0.422
	s-0.25-0.281-0.1-0.516c-0.3,0.234-0.15,0.422-0.15,0.563S9,13.688,9,14.063z M5,23h2v12H5V23z M13,23h2v12h-2V23z M8,32.023h4v1H8
	V32.023z M8,25h4v1H8V25z M8,34.023h4l-2,1L8,34.023z M8,23h4l-2,1L8,23z M10,27.023c-1.103,0-2,0.897-2,2
	c0,0.759,0.425,1.421,1.051,1.76c-0.145-0.196-0.231-0.438-0.231-0.7c0-0.651,0.529-1.18,1.18-1.18c0.518,0,0.94-0.422,0.94-0.94
	S10.518,27.023,10,27.023z M10,28.363c-0.221,0-0.4-0.179-0.4-0.4c0-0.221,0.179-0.4,0.4-0.4s0.4,0.179,0.4,0.4
	S10.221,28.363,10,28.363z M10.949,27.263c0.145,0.196,0.231,0.438,0.231,0.7c0,0.651-0.529,1.18-1.18,1.18
	c-0.518,0-0.94,0.422-0.94,0.94s0.422,0.94,0.94,0.94c1.103,0,2-0.897,2-2C12,28.263,11.575,27.601,10.949,27.263z M10,30.505
	c-0.221,0-0.4-0.179-0.4-0.4c0-0.221,0.179-0.4,0.4-0.4s0.4,0.179,0.4,0.4C10.4,30.326,10.221,30.505,10,30.505z"/>
</svg>