<?xml version="1.0" encoding="iso-8859-1"?><!-- Generator: Adobe Illustrator 20.0.0, SVG Export Plug-In . SVG Version: 6.00 Build 0)  --><svg xmlns="http://www.w3.org/2000/svg" xmlns:xlink="http://www.w3.org/1999/xlink" viewBox="0 0 48 48" width="48px" height="48px"><rect x="2" y="9" transform="matrix(-1 -2.046375e-11 2.046375e-11 -1 48 28)" style="fill:#F44336;" width="44" height="10"/><rect x="2" y="29" transform="matrix(-1 -2.046375e-11 2.046375e-11 -1 48 68)" style="fill:#0D47A1;" width="44" height="10"/><rect x="2" y="19" transform="matrix(-1 -1.025281e-11 1.025281e-11 -1 48 48)" style="fill:#F5F5F5;" width="44" height="10"/><g><path style="fill:#FFFFFF;" d="M24,31.75c-3.121,0-5.661-2.54-5.661-5.661V19.25h11.322v6.839C29.661,29.21,27.121,31.75,24,31.75z"/><path style="fill:#F44336;" d="M29.411,19.5v6.589c0,2.984-2.427,5.411-5.411,5.411s-5.411-2.427-5.411-5.411V19.5H29.411 M29.911,19H18.089v7.089C18.089,29.354,20.735,32,24,32s5.911-2.646,5.911-5.911V19L29.911,19z"/></g><g><rect x="27.372" y="19.334" style="fill:#F44336;" width="2.237" height="2.456"/></g><g><rect x="22.889" y="19.334" style="fill:#F44336;" width="2.237" height="2.456"/></g><g><rect x="18.407" y="19.334" style="fill:#F44336;" width="2.237" height="2.456"/></g><g><rect x="27.372" y="24.263" style="fill:#F44336;" width="2.237" height="2.456"/></g><g><rect x="22.889" y="24.263" style="fill:#F44336;" width="2.237" height="2.456"/></g><g><rect x="18.407" y="24.263" style="fill:#F44336;" width="2.237" height="2.456"/></g><g><path style="fill:#F44336;" d="M27.372,30.529c0.735-0.557,1.12-1.126,1.267-1.341h-1.267V30.529z"/></g><g><path style="fill:#F44336;" d="M20.642,30.529c-0.735-0.557-1.12-1.126-1.267-1.341h1.267V30.529z"/></g><g><path style="fill:#F44336;" d="M22.889,31.545c0,0,0.399,0.111,1.123,0.111c0.723,0,1.114,0,1.114,0v-2.468h-2.237V31.545z"/></g><g><rect x="25.129" y="26.72" style="fill:#F44336;" width="2.237" height="2.456"/></g><g><rect x="20.646" y="26.72" style="fill:#F44336;" width="2.237" height="2.456"/></g><g><rect x="25.129" y="21.791" style="fill:#F44336;" width="2.237" height="2.456"/></g><g><rect x="20.646" y="21.791" style="fill:#F44336;" width="2.237" height="2.456"/></g><path style="fill:#4FC3F7;" d="M18.727,18.99L17.5,16.216l0.905-1.482l1.625,0.604l0.747,2.936C20.776,18.275,19.622,18.575,18.727,18.99z"/><path style="fill:#3F51B5;" d="M22.911,17.924l-0.244-3.022l-1.502-0.868l-1.136,1.304l0.75,2.933C20.78,18.271,21.964,17.979,22.911,17.924z"/><path style="fill:#3F51B5;" d="M25.092,17.924l0.244-3.022l1.502-0.868l1.136,1.304l-0.75,2.933C27.224,18.271,26.04,17.979,25.092,17.924z"/><path style="fill:#4FC3F7;" d="M25.092,17.924l0.244-3.022l-1.334-1.099l-1.335,1.099l0.244,3.022C22.911,17.924,24.241,17.822,25.092,17.924z"/><path style="fill:#4FC3F7;" d="M29.273,18.99l1.227-2.774l-0.905-1.482l-1.625,0.604l-0.747,2.936C27.224,18.275,28.378,18.575,29.273,18.99z"/><path style="fill:#4FC3F7;" d="M29.273,18.99l1.227-2.774l-0.905-1.482l-1.625,0.604l-0.747,2.936C27.224,18.275,28.378,18.575,29.273,18.99z"/><g><path style="fill:#F44336;" d="M20.219,16.079c1.578-0.354,2.069-0.401,2.509-0.431l-0.06-0.746L22.664,14.9c-0.286,0.015-1.26,0.094-2.634,0.441L20.219,16.079z"/><path style="fill:#F44336;" d="M22.851,17.172l-0.061-0.761c-0.915,0.045-2.105,0.324-2.385,0.392l0.194,0.757C21.543,17.287,22.46,17.198,22.851,17.172z"/></g><path style="fill:#FFFFFF;" d="M27.409,17.547c1.002,0.256,1.787,0.58,2.17,0.753l0.472-1.067c-1.088-0.508-2.123-0.772-2.352-0.827L27.409,17.547z"/><path style="fill:#F44336;" d="M27.461,17.341c0.296,0.066,1.107,0.276,2.2,0.773l0.312-0.705c-0.266-0.115-1.382-0.587-2.324-0.807L27.461,17.341z"/></svg>