<?xml version="1.0" encoding="utf-8"?><!-- Generator: Adobe Illustrator 21.0.2, SVG Export Plug-In . SVG Version: 6.00 Build 0)  --><svg xmlns="http://www.w3.org/2000/svg" xmlns:xlink="http://www.w3.org/1999/xlink" viewBox="0 0 48 48" width="48px" height="48px"><g slug="surface1"><path style="fill:#F5F5F5;" d="M2,10h44v30H2V10z"/><rect x="9.4" y="17.6" transform="matrix(0.5444 -0.8388 0.8388 0.5444 -8.9687 19.4161)" style="fill:#263238;" width="8" height="0.7"/><rect x="9.9" y="30.1" transform="matrix(0.8393 -0.5437 0.5437 0.8393 -16.8811 11.0656)" style="fill:#263238;" width="0.8" height="8"/><rect x="35.8" y="12.9" transform="matrix(0.8376 -0.5463 0.5463 0.8376 -3.371 22.512)" style="fill:#263238;" width="0.8" height="8.1"/><rect x="7.8" y="16.6" transform="matrix(0.5444 -0.8388 0.8388 0.5444 -8.8275 17.6486)" style="fill:#263238;" width="8" height="0.7"/><rect x="35.4" y="17.9" transform="matrix(0.839 -0.5441 0.5441 0.839 -4.9953 22.6603)" style="fill:#263238;" width="0.7" height="3.7"/><rect x="36.9" y="31.9" transform="matrix(0.5444 -0.8388 0.8388 0.5444 -9.3925 47.2452)" style="fill:#263238;" width="3.7" height="0.7"/><rect x="12.6" y="33" transform="matrix(0.8383 -0.5452 0.5452 0.8383 -16.919 12.7349)" style="fill:#263238;" width="0.7" height="3.7"/><rect x="38.5" y="15.9" transform="matrix(0.8364 -0.5481 0.5481 0.8364 -3.357 24.2367)" style="fill:#263238;" width="0.7" height="3.7"/><rect x="33.8" y="29.9" transform="matrix(0.5444 -0.8388 0.8388 0.5444 -9.1102 43.7102)" style="fill:#263238;" width="3.7" height="0.7"/><rect x="35.4" y="30.9" transform="matrix(0.5463 -0.8376 0.8376 0.5463 -9.2831 45.3746)" style="fill:#263238;" width="3.7" height="0.8"/><rect x="33.1" y="14.3" transform="matrix(0.8366 -0.5478 0.5478 0.8366 -3.3756 20.9533)" style="fill:#263238;" width="0.7" height="3.7"/><rect x="34.6" y="35.5" transform="matrix(0.5396 -0.8419 0.8419 0.5396 -13.454 47.2104)" style="fill:#263238;" width="3.7" height="0.7"/><rect x="10.3" y="29.4" transform="matrix(0.8409 -0.5412 0.5412 0.8409 -15.2227 10.736)" style="fill:#263238;" width="0.8" height="3.7"/><rect x="36.2" y="12.3" transform="matrix(0.8361 -0.5486 0.5486 0.8361 -1.7486 22.3625)" style="fill:#263238;" width="0.7" height="3.7"/><rect x="31.5" y="33.5" transform="matrix(0.5463 -0.8376 0.8376 0.5463 -13.2616 43.2723)" style="fill:#263238;" width="3.7" height="0.8"/><rect x="33" y="34.5" transform="matrix(0.5414 -0.8408 0.8408 0.5414 -13.3386 45.3266)" style="fill:#263238;" width="3.7" height="0.8"/><rect x="6.2" y="15.6" transform="matrix(0.5469 -0.8372 0.8372 0.5469 -8.6924 15.8148)" style="fill:#263238;" width="8.1" height="0.8"/><rect x="13" y="28" transform="matrix(0.8392 -0.5439 0.5439 0.8392 -15.2827 12.4396)" style="fill:#263238;" width="0.7" height="8"/><path style="fill:#F44336;" d="M20,29c2.2,0,4-1.8,4-4s1.8-4,4-4s4,1.8,4,4c0-4.4-3.6-8-8-8s-8,3.6-8,8C16,27.2,17.8,29,20,29z"/><path style="fill:#3949AB;" d="M28,21c-2.2,0-4,1.8-4,4s-1.8,4-4,4s-4-1.8-4-4c0,4.4,3.6,8,8,8s8-3.6,8-8C32,22.8,30.2,21,28,21z"/></g></svg>