<?xml version="1.0" encoding="iso-8859-1"?><!-- Generator: Adobe Illustrator 20.0.0, SVG Export Plug-In . SVG Version: 6.00 Build 0)  --><svg xmlns="http://www.w3.org/2000/svg" xmlns:xlink="http://www.w3.org/1999/xlink" viewBox="0 0 48 48" width="48px" height="48px"><rect x="2" y="9" style="fill:#FF9800;" width="44" height="10"/><rect x="2" y="19" style="fill:#F5F5F5;" width="44" height="10"/><rect x="2" y="29" style="fill:#388E3C;" width="44" height="10"/><path style="fill:#000088;" d="M24,20.089c-2.16,0-3.911,1.751-3.911,3.911S21.84,27.911,24,27.911S27.911,26.16,27.911,24S26.16,20.089,24,20.089z M24,27.422c-1.89,0-3.422-1.532-3.422-3.422S22.11,20.578,24,20.578c1.89,0,3.422,1.532,3.422,3.422S25.89,27.422,24,27.422z"/><circle style="fill:#000088;" cx="24" cy="24" r="0.684"/><ellipse transform="matrix(0.1305 -0.9915 0.9915 0.1305 -0.4192 48.4155)" style="fill:#000088;" cx="27.393" cy="24.447" rx="0.171" ry="0.171"/><path style="fill:#000088;" d="M24,27.422l0.117-2.053L24,24.391l-0.117,0.978L24,27.422z"/><ellipse transform="matrix(0.3827 -0.9239 0.9239 0.3827 -6.6152 40.7193)" style="fill:#000088;" cx="27.162" cy="25.31" rx="0.171" ry="0.171"/><path style="fill:#000088;" d="M23.114,27.306l0.645-1.953l0.14-0.975l-0.366,0.914L23.114,27.306z"/><ellipse transform="matrix(0.6088 -0.7934 0.7934 0.6088 -10.2413 31.3995)" style="fill:#000088;" cx="26.715" cy="26.083" rx="0.171" ry="0.171"/><path style="fill:#000088;" d="M22.289,26.964l1.128-1.72l0.387-0.905l-0.591,0.788L22.289,26.964z"/><ellipse transform="matrix(0.7934 -0.6088 0.6088 0.7934 -10.873 21.3988)" style="fill:#000088;" cx="26.083" cy="26.715" rx="0.171" ry="0.171"/><path style="fill:#000088;" d="M21.58,26.42l1.535-1.369l0.608-0.774l-0.774,0.608L21.58,26.42z"/><ellipse transform="matrix(0.9239 -0.3827 0.3827 0.9239 -8.4673 11.7521)" style="fill:#000088;" cx="25.31" cy="27.162" rx="0.171" ry="0.171"/><path style="fill:#000088;" d="M21.036,25.711l1.837-0.925l0.788-0.591l-0.905,0.387L21.036,25.711z"/><ellipse transform="matrix(0.9915 -0.1305 0.1305 0.9915 -3.3654 3.4242)" style="fill:#000088;" cx="24.447" cy="27.393" rx="0.171" ry="0.171"/><path style="fill:#000088;" d="M20.694,24.886l2.014-0.418l0.914-0.366l-0.975,0.14L20.694,24.886z"/><ellipse transform="matrix(0.1305 -0.9914 0.9914 0.1305 -6.6789 47.1704)" style="fill:#000088;" cx="23.553" cy="27.393" rx="0.171" ry="0.171"/><path style="fill:#000088;" d="M20.578,24l2.053,0.117L23.609,24l-0.978-0.117L20.578,24z"/><ellipse transform="matrix(0.3827 -0.9239 0.9239 0.3827 -11.0867 37.7316)" style="fill:#000088;" cx="22.69" cy="27.162" rx="0.171" ry="0.171"/><path style="fill:#000088;" d="M20.694,23.114l1.953,0.645l0.975,0.14l-0.914-0.366L20.694,23.114z"/><ellipse transform="matrix(0.6088 -0.7934 0.7934 0.6088 -12.6198 27.8396)" style="fill:#000088;" cx="21.917" cy="26.715" rx="0.171" ry="0.171"/><path style="fill:#000088;" d="M21.036,22.289l1.72,1.128l0.905,0.387l-0.788-0.59L21.036,22.289z"/><ellipse transform="matrix(0.7934 -0.6088 0.6088 0.7934 -11.4801 18.3475)" style="fill:#000088;" cx="21.285" cy="26.083" rx="0.171" ry="0.171"/><path style="fill:#000088;" d="M21.58,21.58l1.369,1.535l0.774,0.608l-0.608-0.774L21.58,21.58z"/><ellipse transform="matrix(0.9239 -0.3827 0.3827 0.9239 -8.0989 9.9001)" style="fill:#000088;" cx="20.838" cy="25.31" rx="0.171" ry="0.171"/><path style="fill:#000088;" d="M22.289,21.036l0.925,1.837l0.591,0.788l-0.387-0.905L22.289,21.036z"/><ellipse transform="matrix(0.9914 -0.1305 0.1305 0.9914 -3.0138 2.898)" style="fill:#000088;" cx="20.607" cy="24.447" rx="0.171" ry="0.171"/><path style="fill:#000088;" d="M23.114,20.694l0.418,2.014l0.366,0.914l-0.14-0.975L23.114,20.694z"/><ellipse transform="matrix(0.1305 -0.9915 0.9915 0.1305 -5.4339 40.9108)" style="fill:#000088;" cx="20.607" cy="23.553" rx="0.171" ry="0.171"/><path style="fill:#000088;" d="M24,20.578l-0.117,2.053L24,23.609l0.117-0.978L24,20.578z"/><ellipse transform="matrix(0.3826 -0.9239 0.9239 0.3826 -8.0987 33.261)" style="fill:#000088;" cx="20.838" cy="22.69" rx="0.171" ry="0.171"/><path style="fill:#000088;" d="M24.886,20.694l-0.645,1.953l-0.14,0.975l0.366-0.914L24.886,20.694z"/><ellipse transform="matrix(0.6087 -0.7934 0.7934 0.6087 -9.0601 25.4619)" style="fill:#000088;" cx="21.285" cy="21.917" rx="0.171" ry="0.171"/><path style="fill:#000088;" d="M25.711,21.036l-1.128,1.72l-0.387,0.905l0.59-0.788L25.711,21.036z"/><ellipse transform="matrix(0.7934 -0.6088 0.6088 0.7934 -8.4284 17.7403)" style="fill:#000088;" cx="21.917" cy="21.285" rx="0.171" ry="0.171"/><path style="fill:#000088;" d="M26.42,21.58l-1.535,1.369l-0.608,0.774l0.774-0.608L26.42,21.58z"/><ellipse transform="matrix(0.9239 -0.3827 0.3827 0.9239 -6.2479 10.2711)" style="fill:#000088;" cx="22.69" cy="20.838" rx="0.171" ry="0.171"/><path style="fill:#000088;" d="M26.964,22.289l-1.837,0.925l-0.788,0.59l0.905-0.387L26.964,22.289z"/><ellipse transform="matrix(0.9914 -0.1306 0.1306 0.9914 -2.4892 3.252)" style="fill:#000088;" cx="23.553" cy="20.607" rx="0.171" ry="0.171"/><path style="fill:#000088;" d="M27.306,23.114l-2.014,0.418l-0.914,0.366l0.975-0.14L27.306,23.114z"/><ellipse transform="matrix(0.1306 -0.9914 0.9914 0.1306 0.8238 42.1536)" style="fill:#000088;" cx="24.447" cy="20.607" rx="0.171" ry="0.171"/><path style="fill:#000088;" d="M27.422,24l-2.053-0.117L24.391,24l0.978,0.117L27.422,24z"/><ellipse transform="matrix(0.3827 -0.9239 0.9239 0.3827 -3.6289 36.2452)" style="fill:#000088;" cx="25.31" cy="20.838" rx="0.171" ry="0.171"/><path style="fill:#000088;" d="M27.306,24.886l-1.953-0.645l-0.975-0.14l0.914,0.366L27.306,24.886z"/><ellipse transform="matrix(0.6088 -0.7934 0.7934 0.6088 -6.6816 29.0212)" style="fill:#000088;" cx="26.083" cy="21.285" rx="0.171" ry="0.171"/><path style="fill:#000088;" d="M26.964,25.711l-1.72-1.128l-0.905-0.387l0.788,0.591L26.964,25.711z"/><ellipse transform="matrix(0.7933 -0.6088 0.6088 0.7933 -7.8215 20.7936)" style="fill:#000088;" cx="26.715" cy="21.917" rx="0.171" ry="0.171"/><path style="fill:#000088;" d="M26.42,26.42l-1.369-1.535l-0.774-0.608l0.608,0.774L26.42,26.42z"/><ellipse transform="matrix(0.9239 -0.3826 0.3826 0.9239 -6.615 12.1193)" style="fill:#000088;" cx="27.162" cy="22.69" rx="0.171" ry="0.171"/><path style="fill:#000088;" d="M25.711,26.964l-0.925-1.837l-0.59-0.788l0.387,0.905L25.711,26.964z"/><ellipse transform="matrix(0.9915 -0.1305 0.1305 0.9915 -2.8392 3.7757)" style="fill:#000088;" cx="27.393" cy="23.553" rx="0.171" ry="0.171"/><path style="fill:#000088;" d="M24.886,27.306l-0.418-2.014l-0.366-0.914l0.14,0.975L24.886,27.306z"/></svg>