<?xml version="1.0" encoding="iso-8859-1"?><!-- Generator: Adobe Illustrator 19.1.1, SVG Export Plug-In . SVG Version: 6.00 Build 0)  --><svg xmlns="http://www.w3.org/2000/svg" xmlns:xlink="http://www.w3.org/1999/xlink" viewBox="0 0 48 48" width="48px" height="48px"><rect x="2" y="8" style="fill:#ECEFF1;" width="44" height="32"/><g><rect x="2" y="11" style="fill:#3F51B5;" width="44" height="4"/><rect x="2" y="33" style="fill:#3F51B5;" width="44" height="4"/><path style="fill:#3F51B5;" d="M17.009,28h1.741h2.926l1.461,2.504L24,31.985l0.864-1.481L26.324,28h2.926h1.741l-0.877-1.504   L28.658,24l1.456-2.496L30.991,20H29.25h-2.926l-1.461-2.504L24,16.015l-0.864,1.481L21.676,20H18.75h-1.741l0.877,1.504L19.342,24   l-1.456,2.496L17.009,28z M24,30l-1.167-2h2.333L24,30z M22.25,27l-1.75-3l1.75-3h3.5l1.75,3l-1.75,3H22.25z M29.25,27h-2.342   l1.171-2.008L29.25,27z M29.25,21l-1.171,2.008L26.908,21H29.25z M24,18l1.167,2h-2.333L24,18z M18.75,21h2.342l-1.171,2.008   L18.75,21z M19.921,24.992L21.092,27H18.75L19.921,24.992z"/></g></svg>