<?xml version="1.0" encoding="iso-8859-1"?>
<!-- Generator: Adobe Illustrator 26.0.1, SVG Export Plug-In . SVG Version: 6.00 Build 0)  -->
<svg version="1.1" id="Layer_1" xmlns="http://www.w3.org/2000/svg" xmlns:xlink="http://www.w3.org/1999/xlink" x="0px" y="0px"
	 viewBox="0 0 48 48" style="enable-background:new 0 0 48 48;" xml:space="preserve">
<g>
	<path style="fill:#D50000;" d="M46,39H24V9h22V39z"/>
</g>
<g>
	<path style="fill:#ECEFF1;" d="M24,39H2V9h22V39z"/>
</g>
<g>
	<g>
		<path style="fill:#ECEFF1;" d="M11.689,13.63c0,0-2.242-0.014-2.234-0.006c0-0.52-0.215-0.807-0.776-0.81V10.62H6.417
			c0,0-0.009,2.215,0,2.206c-0.523,0-0.811,0.216-0.811,0.784c0.166,0-2.198,0.02-2.198,0.02v2.262h2.205
			c0.016,0.487,0.231,0.76,0.778,0.76c0-0.15,0.028,2.25,0.028,2.25h2.262v-2.268c0.485-0.01,0.756-0.221,0.77-0.742h2.24V13.63z"/>
		<path style="fill:#C9082A;" d="M8.679,19.151H6.417c-0.137,0-0.249-0.11-0.25-0.247c0,0-0.017-1.447-0.024-2.021
			c-0.419-0.068-0.676-0.32-0.755-0.741h-1.98c-0.138,0-0.25-0.112-0.25-0.25V13.63c0-0.138,0.111-0.249,0.248-0.25
			c0,0,1.402-0.012,1.969-0.017c0.057-0.353,0.258-0.693,0.799-0.771c-0.013-0.33-0.011-0.915-0.006-1.974
			c0-0.138,0.112-0.249,0.25-0.249h2.262c0.138,0,0.25,0.112,0.25,0.25v1.964c0.348,0.06,0.684,0.262,0.76,0.798
			c0.334-0.012,0.927-0.01,2.002-0.002c0.138,0.001,0.249,0.112,0.249,0.25v2.262c0,0.138-0.112,0.25-0.25,0.25H9.673
			c-0.063,0.321-0.257,0.633-0.744,0.719v2.041C8.929,19.039,8.817,19.151,8.679,19.151z M6.664,18.651h1.765v-2.018
			c0-0.136,0.108-0.247,0.245-0.25c0.378-0.009,0.516-0.139,0.526-0.499c0.004-0.136,0.115-0.243,0.25-0.243h1.99v-1.764
			c-0.806-0.006-1.838-0.01-1.96-0.006c-0.021,0.003-0.046,0.002-0.07-0.003c-0.118-0.022-0.204-0.126-0.204-0.246
			c0-0.416-0.133-0.557-0.528-0.56c-0.137-0.001-0.248-0.112-0.248-0.25V10.87H6.666c-0.003,0.793-0.005,1.808-0.001,1.93
			c0.002,0.024,0.001,0.049-0.003,0.074c-0.023,0.117-0.126,0.202-0.246,0.202c-0.398,0-0.546,0.122-0.56,0.477
			c0.005,0.018,0.007,0.037,0.007,0.057c0,0.117,0.001,0.18-0.253,0.215l0,0.036c-0.038,0-0.074-0.009-0.106-0.024
			c-0.299,0.027-0.847,0.033-1.847,0.042v1.764h1.955c0.135,0,0.246,0.107,0.25,0.242c0.011,0.364,0.137,0.504,0.475,0.517
			c0.022-0.005,0.046-0.006,0.068-0.006c0.106,0,0.164,0.012,0.198,0.254h0.036c0,0.038-0.009,0.074-0.024,0.106
			C6.644,17.059,6.652,17.619,6.664,18.651z"/>
	</g>
	<g>
		<g>
			<g>
				<path style="fill:#ECEFF1;" d="M6.416,12.826c-0.523,0-0.811,0.216-0.811,0.784c0.315,0,0.811,0,0.811,0
					S6.403,12.84,6.416,12.826z"/>
				<path style="fill:#231F20;" d="M6.417,13.66H5.605c-0.028,0-0.05-0.022-0.05-0.05c0-0.562,0.281-0.834,0.861-0.834
					c0.02,0,0.039,0.012,0.046,0.03c0.004,0.012,0.005,0.024,0.001,0.035c-0.007,0.057-0.002,0.498,0.002,0.768
					c0,0.014-0.005,0.026-0.014,0.036S6.43,13.66,6.417,13.66z M5.656,13.561h0.709c-0.007-0.409-0.007-0.596-0.003-0.684
					C5.891,12.892,5.671,13.104,5.656,13.561z"/>
			</g>
			<g>
				<line style="fill:#ECEFF1;" x1="5.954" y1="13.138" x2="6.26" y2="13.445"/>
				<path style="fill:#231F20;" d="M6.26,13.494c-0.013,0-0.025-0.005-0.035-0.015l-0.307-0.306c-0.02-0.02-0.02-0.051,0-0.07
					c0.02-0.02,0.051-0.02,0.071,0l0.307,0.306c0.02,0.02,0.02,0.051,0,0.07C6.286,13.489,6.273,13.494,6.26,13.494z"/>
			</g>
			<g>
				<line style="fill:#ECEFF1;" x1="5.849" y1="13.349" x2="6.101" y2="13.565"/>
				<path style="fill:#231F20;" d="M6.101,13.615c-0.012,0-0.023-0.004-0.033-0.012l-0.252-0.217
					c-0.021-0.019-0.023-0.05-0.005-0.07c0.019-0.021,0.05-0.022,0.071-0.006l0.252,0.217c0.021,0.019,0.023,0.05,0.005,0.07
					C6.129,13.609,6.115,13.615,6.101,13.615z"/>
			</g>
			<g>
				<line style="fill:#ECEFF1;" x1="6.173" y1="13.015" x2="6.416" y2="13.259"/>
				<path style="fill:#231F20;" d="M6.417,13.309c-0.013,0-0.025-0.005-0.035-0.015l-0.244-0.243c-0.02-0.02-0.02-0.051,0-0.07
					s0.051-0.02,0.07,0l0.244,0.243c0.02,0.02,0.02,0.051,0,0.07C6.442,13.304,6.429,13.309,6.417,13.309z"/>
			</g>
		</g>
		<g>
			<g>
				<path style="fill:#ECEFF1;" d="M9.455,13.624c0-0.523-0.216-0.811-0.784-0.811c0,0.315,0,0.811,0,0.811
					S9.441,13.61,9.455,13.624z"/>
				<path style="fill:#231F20;" d="M8.671,13.674c-0.013,0-0.026-0.005-0.035-0.014c-0.009-0.01-0.015-0.022-0.015-0.036v-0.812
					c0-0.027,0.022-0.05,0.05-0.05c0.561,0,0.833,0.281,0.833,0.861c0,0.021-0.012,0.039-0.031,0.046
					c-0.011,0.006-0.023,0.004-0.034,0.002C9.382,13.664,8.941,13.67,8.671,13.674C8.671,13.674,8.671,13.674,8.671,13.674z
					 M8.721,12.863v0.71c0.409-0.007,0.594-0.008,0.683-0.003C9.389,13.099,9.176,12.878,8.721,12.863z"/>
			</g>
			<g>
				<line style="fill:#ECEFF1;" x1="9.142" y1="13.161" x2="8.836" y2="13.467"/>
				<path style="fill:#231F20;" d="M8.836,13.518c-0.013,0-0.025-0.005-0.035-0.015c-0.02-0.02-0.02-0.051,0-0.07l0.307-0.307
					c0.02-0.02,0.051-0.02,0.07,0s0.02,0.051,0,0.07l-0.307,0.307C8.861,13.513,8.849,13.518,8.836,13.518z"/>
			</g>
			<g>
				<line style="fill:#ECEFF1;" x1="8.932" y1="13.056" x2="8.716" y2="13.308"/>
				<path style="fill:#231F20;" d="M8.716,13.358c-0.012,0-0.023-0.004-0.033-0.012c-0.021-0.018-0.023-0.05-0.005-0.07l0.216-0.253
					c0.019-0.021,0.05-0.022,0.071-0.006c0.021,0.018,0.023,0.05,0.005,0.07l-0.216,0.253C8.744,13.353,8.73,13.358,8.716,13.358z"
					/>
			</g>
			<g>
				<line style="fill:#ECEFF1;" x1="9.266" y1="13.38" x2="9.022" y2="13.624"/>
				<path style="fill:#231F20;" d="M9.022,13.674c-0.013,0-0.025-0.005-0.035-0.015c-0.02-0.02-0.02-0.051,0-0.07l0.244-0.244
					c0.02-0.02,0.051-0.02,0.07,0s0.02,0.051,0,0.07l-0.244,0.244C9.047,13.669,9.035,13.674,9.022,13.674z"/>
			</g>
		</g>
		<g>
			<g>
				<path style="fill:#ECEFF1;" d="M8.644,16.638c0.523,0,0.811-0.216,0.811-0.784c-0.315,0-0.811,0-0.811,0
					S8.657,16.624,8.644,16.638z"/>
				<path style="fill:#231F20;" d="M8.644,16.688c-0.02,0-0.039-0.012-0.046-0.03c-0.004-0.012-0.005-0.024-0.001-0.035
					c0.007-0.057,0.002-0.498-0.002-0.768c0-0.014,0.005-0.026,0.014-0.036s0.022-0.015,0.036-0.015h0.811
					c0.028,0,0.05,0.022,0.05,0.05C9.504,16.415,9.223,16.688,8.644,16.688z M8.694,15.903c0.007,0.409,0.007,0.596,0.003,0.684
					c0.472-0.015,0.692-0.228,0.707-0.684H8.694z"/>
			</g>
			<g>
				<line style="fill:#ECEFF1;" x1="9.106" y1="16.326" x2="8.8" y2="16.019"/>
				<path style="fill:#231F20;" d="M9.106,16.375c-0.013,0-0.025-0.005-0.035-0.015l-0.307-0.306c-0.02-0.02-0.02-0.051,0-0.07
					c0.02-0.02,0.051-0.02,0.071,0l0.307,0.306c0.02,0.02,0.02,0.051,0,0.07C9.132,16.37,9.119,16.375,9.106,16.375z"/>
			</g>
			<g>
				<line style="fill:#ECEFF1;" x1="9.211" y1="16.115" x2="8.959" y2="15.899"/>
				<path style="fill:#231F20;" d="M9.211,16.165c-0.012,0-0.023-0.004-0.033-0.012l-0.252-0.216
					c-0.021-0.018-0.023-0.05-0.005-0.07c0.019-0.021,0.049-0.022,0.071-0.006l0.252,0.216c0.021,0.018,0.023,0.05,0.005,0.07
					C9.24,16.159,9.226,16.165,9.211,16.165z"/>
			</g>
			<g>
				<line style="fill:#ECEFF1;" x1="8.887" y1="16.449" x2="8.644" y2="16.205"/>
				<path style="fill:#231F20;" d="M8.887,16.498c-0.013,0-0.025-0.005-0.035-0.015L8.608,16.24c-0.02-0.02-0.02-0.051,0-0.07
					s0.051-0.02,0.07,0l0.244,0.243c0.02,0.02,0.02,0.051,0,0.07C8.913,16.493,8.9,16.498,8.887,16.498z"/>
			</g>
		</g>
		<g>
			<g>
				<path style="fill:#ECEFF1;" d="M5.605,15.84c0,0.523,0.216,0.811,0.784,0.811c0-0.315,0-0.811,0-0.811S5.619,15.854,5.605,15.84
					z"/>
				<path style="fill:#231F20;" d="M6.389,16.701c-0.561,0-0.833-0.281-0.833-0.86c0-0.021,0.012-0.038,0.03-0.046
					c0.01-0.005,0.023-0.005,0.035-0.002c0.057,0.009,0.497,0.003,0.768-0.002c0,0,0,0,0.001,0c0.013,0,0.026,0.005,0.035,0.014
					c0.009,0.01,0.015,0.022,0.015,0.036v0.811C6.439,16.679,6.417,16.701,6.389,16.701z M5.656,15.895
					c0.015,0.472,0.228,0.691,0.683,0.706v-0.709C5.928,15.898,5.743,15.898,5.656,15.895z M5.605,15.841h0.001H5.605z"/>
			</g>
			<g>
				<line style="fill:#ECEFF1;" x1="5.918" y1="16.303" x2="6.224" y2="15.997"/>
				<path style="fill:#231F20;" d="M5.918,16.353c-0.013,0-0.025-0.005-0.035-0.015c-0.02-0.02-0.02-0.051,0-0.07l0.306-0.306
					c0.02-0.02,0.051-0.02,0.07,0s0.02,0.051,0,0.07l-0.306,0.306C5.943,16.348,5.931,16.353,5.918,16.353z"/>
			</g>
			<g>
				<line style="fill:#ECEFF1;" x1="6.128" y1="16.408" x2="6.344" y2="16.156"/>
				<path style="fill:#231F20;" d="M6.128,16.458c-0.012,0-0.023-0.004-0.033-0.012c-0.021-0.019-0.023-0.05-0.005-0.07l0.216-0.252
					c0.019-0.021,0.05-0.022,0.071-0.006c0.021,0.019,0.023,0.05,0.005,0.07L6.166,16.44C6.156,16.452,6.142,16.458,6.128,16.458z"
					/>
			</g>
			<g>
				<line style="fill:#ECEFF1;" x1="5.795" y1="16.084" x2="6.038" y2="15.84"/>
				<path style="fill:#231F20;" d="M5.794,16.134c-0.013,0-0.025-0.005-0.035-0.015c-0.02-0.02-0.02-0.051,0-0.07l0.244-0.243
					c0.02-0.02,0.051-0.02,0.07,0s0.02,0.051,0,0.07L5.83,16.119C5.82,16.129,5.807,16.134,5.794,16.134z"/>
			</g>
		</g>
		<g>
			
				<rect x="6.417" y="10.62" transform="matrix(6.123234e-17 -1 1 6.123234e-17 -7.2128 22.3085)" style="fill:#ECEFF1;" width="2.262" height="8.282"/>
			<path style="fill:#231F20;" d="M11.689,15.941H3.407c-0.028,0-0.05-0.022-0.05-0.05V13.63c0-0.027,0.022-0.05,0.05-0.05h8.282
				c0.028,0,0.05,0.022,0.05,0.05v2.262C11.739,15.919,11.717,15.941,11.689,15.941z M3.457,15.842h8.183V13.68H3.457V15.842z"/>
		</g>
		<g>
			
				<rect x="6.417" y="10.62" transform="matrix(-1 -1.224647e-16 1.224647e-16 -1 15.0957 29.5213)" style="fill:#ECEFF1;" width="2.262" height="8.282"/>
			<path style="fill:#231F20;" d="M8.679,18.951H6.417c-0.028,0-0.05-0.022-0.05-0.05V10.62c0-0.027,0.022-0.05,0.05-0.05h2.262
				c0.028,0,0.05,0.022,0.05,0.05v8.281C8.729,18.929,8.707,18.951,8.679,18.951z M6.467,18.852h2.162V10.67H6.467V18.852z"/>
		</g>
		<g>
			<circle style="fill:#ECEFF1;" cx="7.548" cy="14.761" r="1.819"/>
			<path style="fill:#231F20;" d="M7.548,16.63c-1.031,0-1.869-0.839-1.869-1.869s0.838-1.869,1.869-1.869s1.869,0.839,1.869,1.869
				S8.579,16.63,7.548,16.63z M7.548,12.991c-0.976,0-1.77,0.794-1.77,1.77s0.794,1.77,1.77,1.77s1.77-0.794,1.77-1.77
				S8.523,12.991,7.548,12.991z"/>
		</g>
		<g>
			<circle style="fill:#ECEFF1;" cx="7.548" cy="14.761" r="1.293"/>
			<path style="fill:#231F20;" d="M7.548,16.103c-0.74,0-1.342-0.602-1.342-1.342s0.602-1.343,1.342-1.343s1.342,0.603,1.342,1.343
				S8.288,16.103,7.548,16.103z M7.548,13.518c-0.685,0-1.243,0.558-1.243,1.243c0,0.685,0.558,1.242,1.243,1.242
				s1.243-0.558,1.243-1.242C8.791,14.075,8.233,13.518,7.548,13.518z"/>
		</g>
	</g>
</g>
</svg>