<?xml version="1.0" encoding="iso-8859-1"?>
<!-- Generator: Adobe Illustrator 26.0.1, SVG Export Plug-In . SVG Version: 6.00 Build 0)  -->
<svg version="1.1" slug="Layer_1" xmlns="http://www.w3.org/2000/svg" xmlns:xlink="http://www.w3.org/1999/xlink" x="0px" y="0px"
	 viewBox="0 0 48 48" style="enable-background:new 0 0 48 48;" xml:space="preserve">
<g>
	<path style="fill:#ECEFF1;" d="M2,9h44v30H2V9z"/>
</g>
<g>
	<path style="fill:#E53935;" d="M21,9h6v30h-6V9z"/>
</g>
<g>
	<path style="fill:#E53935;" d="M2,27v-6h44v6H2z"/>
</g>
<g>
	<path style="fill:#E53935;" d="M14.689,14.179c-0.79,0.172-1.574,0.28-2.352,0.325c0.032-0.829,0.124-1.628,0.282-2.394
		c-0.775,0.118-1.489,0.115-2.148,0c0.176,0.806,0.285,1.606,0.328,2.399c-0.806-0.041-1.606-0.15-2.398-0.329
		c0.117,0.712,0.116,1.428,0,2.148c0.827-0.144,1.625-0.233,2.397-0.272c-0.043,0.787-0.152,1.568-0.328,2.342
		c0.712-0.117,1.428-0.116,2.148,0c-0.141-0.81-0.228-1.592-0.269-2.35c0.81,0.034,1.589,0.126,2.339,0.281
		C14.571,15.551,14.574,14.837,14.689,14.179z"/>
</g>
<g>
	<path style="fill:#E53935;" d="M14.689,31.843c-0.79,0.172-1.574,0.28-2.352,0.325c0.032-0.829,0.124-1.628,0.282-2.394
		c-0.775,0.118-1.489,0.115-2.148,0c0.176,0.806,0.285,1.606,0.328,2.399c-0.806-0.041-1.606-0.15-2.398-0.329
		c0.117,0.712,0.116,1.428,0,2.148c0.827-0.144,1.625-0.233,2.397-0.272c-0.043,0.787-0.152,1.568-0.328,2.342
		c0.712-0.117,1.428-0.116,2.148,0c-0.141-0.81-0.228-1.592-0.269-2.35c0.81,0.034,1.589,0.126,2.339,0.281
		C14.571,33.216,14.574,32.502,14.689,31.843z"/>
</g>
<g>
	<path style="fill:#E53935;" d="M39.535,14.179c-0.79,0.172-1.574,0.28-2.352,0.325c0.032-0.829,0.124-1.628,0.282-2.394
		c-0.775,0.118-1.489,0.115-2.148,0c0.176,0.806,0.285,1.606,0.328,2.399c-0.806-0.041-1.606-0.15-2.398-0.329
		c0.117,0.712,0.116,1.428,0,2.148c0.827-0.144,1.625-0.233,2.397-0.272c-0.043,0.787-0.152,1.568-0.328,2.342
		c0.712-0.117,1.428-0.116,2.148,0c-0.141-0.81-0.228-1.592-0.269-2.35c0.81,0.034,1.589,0.126,2.339,0.281
		C39.416,15.551,39.42,14.837,39.535,14.179z"/>
</g>
<g>
	<path style="fill:#E53935;" d="M39.535,31.843c-0.79,0.172-1.574,0.28-2.352,0.325c0.032-0.829,0.124-1.628,0.282-2.394
		c-0.775,0.118-1.489,0.115-2.148,0c0.176,0.806,0.285,1.606,0.328,2.399c-0.806-0.041-1.606-0.15-2.398-0.329
		c0.117,0.712,0.116,1.428,0,2.148c0.827-0.144,1.625-0.233,2.397-0.272c-0.043,0.787-0.152,1.568-0.328,2.342
		c0.712-0.117,1.428-0.116,2.148,0c-0.141-0.81-0.228-1.592-0.269-2.35c0.81,0.034,1.589,0.126,2.339,0.281
		C39.416,33.216,39.42,32.502,39.535,31.843z"/>
</g>
</svg>