<?xml version="1.0" encoding="iso-8859-1"?>
<!-- Generator: Adobe Illustrator 25.2.3, SVG Export Plug-In . SVG Version: 6.00 Build 0)  -->
<svg version="1.1" baseProfile="basic" slug="Layer_1"
	 xmlns="http://www.w3.org/2000/svg" xmlns:xlink="http://www.w3.org/1999/xlink" x="0px" y="0px" viewBox="0 0 48 48"
	 xml:space="preserve">
<rect x="2" y="24" style="fill:#FF3D00;" width="44" height="15"/>
<rect x="2" y="9" style="fill:#3F51B5;" width="44" height="15"/>
<polygon style="fill:#ECEFF1;" points="2,9 2,39 25,24.002 "/>
<linearGradient slug="SVGID_1_" gradientUnits="userSpaceOnUse" x1="16.6379" y1="17.0511" x2="31.5682" y2="46.3534">
	<stop  offset="0.008" style="stop-color:#F44F5A"/>
	<stop  offset="0.447" style="stop-color:#EE3D4A"/>
	<stop  offset="1" style="stop-color:#E52030"/>
</linearGradient>
<polygon style="fill:url(#SVGID_1_);" points="3,24 24,23 46,24 46,39 2,39 "/>
<linearGradient slug="SVGID_2_" gradientUnits="userSpaceOnUse" x1="16.8288" y1="1.4444" x2="31.9651" y2="31.1511">
	<stop  offset="0" style="stop-color:#0D61A9"/>
	<stop  offset="1" style="stop-color:#16528C"/>
</linearGradient>
<polygon style="fill:url(#SVGID_2_);" points="2,9 46,9 46,24 3,24 "/>
<linearGradient slug="SVGID_3_" gradientUnits="userSpaceOnUse" x1="1.3706" y1="7.6957" x2="28.0332" y2="60.0241">
	<stop  offset="0" style="stop-color:#DFE9F2"/>
	<stop  offset="0.998" style="stop-color:#9EA7B0"/>
</linearGradient>
<polygon style="fill:url(#SVGID_3_);" points="2,9 2,39 25,24.002 "/>
<g>
	<polygon style="fill:#FFA000;" points="3.572,16 4.5,15.488 5.428,16 5.25,14.916 6,14.146 4.963,13.988 4.5,13 4.037,13.988 
		3,14.146 3.75,14.916 	"/>
	<polygon style="fill:#FFA000;" points="5.25,33.061 4.787,32.072 4.324,33.061 3.287,33.218 4.037,33.988 3.859,35.072 
		4.787,34.561 5.715,35.072 5.537,33.988 6.287,33.218 	"/>
	<polygon style="fill:#FFA000;" points="20.963,23.47 19.926,23.313 19.463,22.324 19,23.313 17.963,23.47 18.713,24.24 
		18.535,25.324 19.463,24.813 20.391,25.324 20.213,24.24 	"/>
	<path style="fill:#FFA000;" d="M9,29c0,0.553,0.447,1,1,1s1-0.447,1-1l-1-1.998L9,29z"/>
	<path style="fill:#FFA000;" d="M10,18c-0.553,0-1,0.447-1,1l1,2l1-2C11,18.447,10.553,18,10,18z"/>
	<path style="fill:#FFA000;" d="M15,23l-1.998,1L15,25c0.553,0,1-0.447,1-1C16,23.447,15.553,23,15,23z"/>
	<path style="fill:#FFA000;" d="M4,24c0,0.553,0.447,1,1,1l2-1l-2-1C4.447,23,4,23.447,4,24z"/>
	<path style="fill:#FFA000;" d="M12.12,26.122C12.664,25.579,13,24.829,13,24c0-1.657-1.343-3-3-3s-3,1.343-3,3
		c0,0.828,0.336,1.578,0.878,2.121l-2.12,0.707c-0.391,0.391-0.391,1.023,0,1.414s1.023,0.391,1.414,0l0.707-2.12
		C8.422,26.664,9.172,27,10,27C10.828,27,11.577,26.665,12.12,26.122l0.707,2.121c0.391,0.391,1.023,0.391,1.414,0
		c0.391-0.391,0.391-1.023,0-1.414L12.12,26.122z"/>
	<path style="fill:#FFA000;" d="M5.757,21.173l2.119,0.705l-0.705-2.12c-0.391-0.391-1.023-0.391-1.414,0
		C5.365,20.15,5.365,20.781,5.757,21.173z"/>
	<path style="fill:#FFA000;" d="M14.243,19.758c-0.392-0.392-1.023-0.392-1.415,0l-0.705,2.119l2.12-0.705
		C14.634,20.781,14.634,20.149,14.243,19.758z"/>
	<linearGradient slug="SVGID_4_" gradientUnits="userSpaceOnUse" x1="4.1987" y1="13.1535" x2="22.3592" y2="48.7955">
		<stop  offset="0" style="stop-color:#F09701"/>
		<stop  offset="1" style="stop-color:#E36001"/>
	</linearGradient>
	<path style="fill:url(#SVGID_4_);" d="M4.5,13l0.463,0.988L6,14.146l-0.75,0.77L5.428,16L4.5,15.488L3.572,16l0.178-1.084L3,14.146
		l1.037-0.158L4.5,13z M4.787,32.072l0.463,0.989l1.037,0.157l-0.75,0.77l0.178,1.084l-0.928-0.511l-0.928,0.511l0.178-1.084
		l-0.75-0.77l1.037-0.157L4.787,32.072z M19.463,22.324l0.463,0.989l1.037,0.157l-0.75,0.77l0.178,1.084l-0.928-0.511l-0.928,0.511
		l0.178-1.084l-0.75-0.77L19,23.313L19.463,22.324z M10,21c1.657,0,3,1.343,3,3s-1.343,3-3,3s-3-1.343-3-3S8.343,21,10,21z M11,29
		c0,0.553-0.447,1-1,1l0,0c-0.553,0-1-0.447-1-1l1-1.998V21l-1-2c0-0.553,0.447-1,1-1l0,0c0.553,0,1,0.447,1,1l-1,2v6.002L11,29z
		 M15,23c0.553,0,1,0.447,1,1l0,0c0,0.553-0.447,1-1,1l-1.998-1H7l-2,1c-0.553,0-1-0.447-1-1l0,0c0-0.553,0.447-1,1-1l2,1h6.002
		L15,23z M5.757,21.173c-0.392-0.392-0.392-1.023,0-1.415l0,0c0.391-0.391,1.023-0.391,1.414,0l0.705,2.12l4.244,4.244l2.121,0.707
		c0.391,0.391,0.391,1.023,0,1.414l0,0c-0.391,0.391-1.023,0.391-1.414,0l-0.707-2.121l-4.244-4.244L5.757,21.173z M12.828,19.758
		c0.392-0.392,1.023-0.392,1.415,0l0,0c0.391,0.391,0.391,1.023,0,1.414l-2.12,0.705l-4.244,4.244l-0.707,2.121
		c-0.391,0.391-1.023,0.391-1.414,0l0,0c-0.391-0.391-0.391-1.023,0-1.414l2.121-0.707l4.244-4.244L12.828,19.758z"/>
</g>
</svg>