<?xml version="1.0" encoding="iso-8859-1"?><!-- Generator: Adobe Illustrator 19.1.1, SVG Export Plug-In . SVG Version: 6.00 Build 0)  --><svg xmlns="http://www.w3.org/2000/svg" xmlns:xlink="http://www.w3.org/1999/xlink" viewBox="0 0 48 48" width="48px" height="48px"><rect x="2" y="9" style="fill:#00C853;" width="44" height="30"/><rect x="2" y="9" style="fill:#00ACC1;" width="44" height="15"/><rect x="2" y="18" style="fill:#D50000;" width="44" height="12"/><rect x="2" y="19" style="fill:#ECEFF1;" width="44" height="10"/><circle style="fill:#FFFFFF;" cx="7.5" cy="13.5" r="3.5"/><circle style="fill:#00ACC1;" cx="8.5" cy="13.5" r="3.5"/><polygon style="fill:#FFFFFF;" points="18.691,10.618 19,10.382 18.618,10.382 18.5,10 18.382,10.382 18,10.382 18.309,10.618 18.191,11 18.5,10.764 18.809,11 "/><polygon style="fill:#FFFFFF;" points="21.691,10.618 22,10.382 21.618,10.382 21.5,10 21.382,10.382 21,10.382 21.309,10.618 21.191,11 21.5,10.764 21.809,11 "/><polygon style="fill:#FFFFFF;" points="15.691,10.618 16,10.382 15.618,10.382 15.5,10 15.382,10.382 15,10.382 15.309,10.618 15.191,11 15.5,10.764 15.809,11 "/><polygon style="fill:#FFFFFF;" points="18.691,13.618 19,13.382 18.618,13.382 18.5,13 18.382,13.382 18,13.382 18.309,13.618 18.191,14 18.5,13.764 18.809,14 "/><polygon style="fill:#FFFFFF;" points="21.691,13.618 22,13.382 21.618,13.382 21.5,13 21.382,13.382 21,13.382 21.309,13.618 21.191,14 21.5,13.764 21.809,14 "/><polygon style="fill:#FFFFFF;" points="15.691,13.618 16,13.382 15.618,13.382 15.5,13 15.382,13.382 15,13.382 15.309,13.618 15.191,14 15.5,13.764 15.809,14 "/><polygon style="fill:#FFFFFF;" points="18.691,16.618 19,16.382 18.618,16.382 18.5,16 18.382,16.382 18,16.382 18.309,16.618 18.191,17 18.5,16.764 18.809,17 "/><polygon style="fill:#FFFFFF;" points="21.691,16.618 22,16.382 21.618,16.382 21.5,16 21.382,16.382 21,16.382 21.309,16.618 21.191,17 21.5,16.764 21.809,17 "/><polygon style="fill:#FFFFFF;" points="15.691,16.618 16,16.382 15.618,16.382 15.5,16 15.382,16.382 15,16.382 15.309,16.618 15.191,17 15.5,16.764 15.809,17 "/><polygon style="fill:#FFFFFF;" points="12.691,13.618 13,13.382 12.618,13.382 12.5,13 12.382,13.382 12,13.382 12.309,13.618 12.191,14 12.5,13.764 12.809,14 "/><polygon style="fill:#FFFFFF;" points="12.691,16.618 13,16.382 12.618,16.382 12.5,16 12.382,16.382 12,16.382 12.309,16.618 12.191,17 12.5,16.764 12.809,17 "/><polygon style="fill:#FFFFFF;" points="9.691,16.618 10,16.382 9.618,16.382 9.5,16 9.382,16.382 9,16.382 9.309,16.618 9.191,17 9.5,16.764 9.809,17 "/></svg>